<mxfile host="65bd71144e">
    <diagram id="bbue4x2oTtFrUcZBqTKc" name="Page-1">
        <mxGraphModel dx="1122" dy="517" grid="1" gridSize="10" guides="1" tooltips="1" connect="1" arrows="1" fold="1" page="1" pageScale="1" pageWidth="1200" pageHeight="600" background="none" math="0" shadow="0">
            <root>
                <mxCell id="0"/>
                <mxCell id="1" parent="0"/>
                <mxCell id="10" value="tb_customers" style="shape=table;startSize=20;container=1;collapsible=0;childLayout=tableLayout;fixedRows=1;rowLines=0;fontStyle=0;strokeColor=default;fontSize=12;labelBackgroundColor=none;fillColor=#E6E6E6;swimlaneLine=1;swimlaneFillColor=default;" vertex="1" parent="1">
                    <mxGeometry x="340" y="459" width="230" height="123" as="geometry"/>
                </mxCell>
                <mxCell id="11" value="" style="shape=tableRow;horizontal=0;startSize=0;swimlaneHead=0;swimlaneBody=0;top=0;left=0;bottom=0;right=0;collapsible=0;dropTarget=0;fillColor=none;points=[[0,0.5],[1,0.5]];portConstraint=eastwest;strokeColor=inherit;fontSize=16;" vertex="1" parent="10">
                    <mxGeometry y="20" width="230" height="20" as="geometry"/>
                </mxCell>
                <mxCell id="12" value="" style="shape=partialRectangle;connectable=0;fillColor=none;top=0;left=0;bottom=0;right=0;overflow=hidden;pointerEvents=1;strokeColor=inherit;fontSize=12;spacing=0;whiteSpace=wrap;html=1;" vertex="1" parent="11">
                    <mxGeometry width="26" height="20" as="geometry">
                        <mxRectangle width="26" height="20" as="alternateBounds"/>
                    </mxGeometry>
                </mxCell>
                <mxCell id="13" value="&lt;span style=&quot;color: rgb(0, 0, 0); font-family: Helvetica; font-size: 12px; font-style: normal; font-variant-ligatures: normal; font-variant-caps: normal; font-weight: 400; letter-spacing: normal; orphans: 2; text-align: left; text-indent: 0px; text-transform: none; widows: 2; word-spacing: 0px; -webkit-text-stroke-width: 0px; white-space: normal; background-color: rgb(251, 251, 251); text-decoration-thickness: initial; text-decoration-style: initial; text-decoration-color: initial; float: none; display: inline !important;&quot;&gt;customer_id&lt;/span&gt;" style="shape=partialRectangle;connectable=0;fillColor=none;top=0;left=0;bottom=0;right=0;align=left;spacingLeft=6;overflow=hidden;strokeColor=inherit;fontSize=12;spacing=0;whiteSpace=wrap;html=1;" vertex="1" parent="11">
                    <mxGeometry x="26" width="154" height="20" as="geometry">
                        <mxRectangle width="154" height="20" as="alternateBounds"/>
                    </mxGeometry>
                </mxCell>
                <mxCell id="20" value="TEXT" style="shape=partialRectangle;connectable=0;fillColor=none;top=0;left=0;bottom=0;right=0;align=left;spacingLeft=6;overflow=hidden;strokeColor=inherit;fontSize=12;spacing=0;whiteSpace=wrap;html=1;" vertex="1" parent="11">
                    <mxGeometry x="180" width="50" height="20" as="geometry">
                        <mxRectangle width="50" height="20" as="alternateBounds"/>
                    </mxGeometry>
                </mxCell>
                <mxCell id="14" value="" style="shape=tableRow;horizontal=0;startSize=0;swimlaneHead=0;swimlaneBody=0;top=0;left=0;bottom=0;right=0;collapsible=0;dropTarget=0;fillColor=none;points=[[0,0.5],[1,0.5]];portConstraint=eastwest;strokeColor=inherit;fontSize=16;" vertex="1" parent="10">
                    <mxGeometry y="40" width="230" height="20" as="geometry"/>
                </mxCell>
                <mxCell id="15" value="" style="shape=partialRectangle;connectable=0;fillColor=none;top=0;left=0;bottom=0;right=0;overflow=hidden;strokeColor=inherit;fontSize=12;spacing=0;whiteSpace=wrap;html=1;" vertex="1" parent="14">
                    <mxGeometry width="26" height="20" as="geometry">
                        <mxRectangle width="26" height="20" as="alternateBounds"/>
                    </mxGeometry>
                </mxCell>
                <mxCell id="16" value="customer_unique_id" style="shape=partialRectangle;connectable=0;fillColor=none;top=0;left=0;bottom=0;right=0;align=left;spacingLeft=6;overflow=hidden;strokeColor=inherit;fontSize=12;spacing=0;whiteSpace=wrap;html=1;" vertex="1" parent="14">
                    <mxGeometry x="26" width="154" height="20" as="geometry">
                        <mxRectangle width="154" height="20" as="alternateBounds"/>
                    </mxGeometry>
                </mxCell>
                <mxCell id="21" value="TEXT" style="shape=partialRectangle;connectable=0;fillColor=none;top=0;left=0;bottom=0;right=0;align=left;spacingLeft=6;overflow=hidden;strokeColor=inherit;fontSize=12;spacing=0;whiteSpace=wrap;html=1;" vertex="1" parent="14">
                    <mxGeometry x="180" width="50" height="20" as="geometry">
                        <mxRectangle width="50" height="20" as="alternateBounds"/>
                    </mxGeometry>
                </mxCell>
                <mxCell id="17" value="" style="shape=tableRow;horizontal=0;startSize=0;swimlaneHead=0;swimlaneBody=0;top=0;left=0;bottom=0;right=0;collapsible=0;dropTarget=0;fillColor=none;points=[[0,0.5],[1,0.5]];portConstraint=eastwest;strokeColor=inherit;fontSize=16;" vertex="1" parent="10">
                    <mxGeometry y="60" width="230" height="21" as="geometry"/>
                </mxCell>
                <mxCell id="18" value="" style="shape=partialRectangle;connectable=0;fillColor=none;top=0;left=0;bottom=0;right=0;overflow=hidden;strokeColor=inherit;fontSize=12;spacing=0;whiteSpace=wrap;html=1;" vertex="1" parent="17">
                    <mxGeometry width="26" height="21" as="geometry">
                        <mxRectangle width="26" height="21" as="alternateBounds"/>
                    </mxGeometry>
                </mxCell>
                <mxCell id="19" value="customer_zip_code_prefix" style="shape=partialRectangle;connectable=0;fillColor=none;top=0;left=0;bottom=0;right=0;align=left;spacingLeft=6;overflow=hidden;strokeColor=inherit;fontSize=12;spacing=0;whiteSpace=wrap;html=1;" vertex="1" parent="17">
                    <mxGeometry x="26" width="154" height="21" as="geometry">
                        <mxRectangle width="154" height="21" as="alternateBounds"/>
                    </mxGeometry>
                </mxCell>
                <mxCell id="22" value="BIGINT" style="shape=partialRectangle;connectable=0;fillColor=none;top=0;left=0;bottom=0;right=0;align=left;spacingLeft=6;overflow=hidden;strokeColor=inherit;fontSize=12;spacing=0;whiteSpace=wrap;html=1;" vertex="1" parent="17">
                    <mxGeometry x="180" width="50" height="21" as="geometry">
                        <mxRectangle width="50" height="21" as="alternateBounds"/>
                    </mxGeometry>
                </mxCell>
                <mxCell id="35" style="shape=tableRow;horizontal=0;startSize=0;swimlaneHead=0;swimlaneBody=0;top=0;left=0;bottom=0;right=0;collapsible=0;dropTarget=0;fillColor=none;points=[[0,0.5],[1,0.5]];portConstraint=eastwest;strokeColor=inherit;fontSize=16;" vertex="1" parent="10">
                    <mxGeometry y="81" width="230" height="21" as="geometry"/>
                </mxCell>
                <mxCell id="36" value="" style="shape=partialRectangle;connectable=0;fillColor=none;top=0;left=0;bottom=0;right=0;overflow=hidden;strokeColor=inherit;fontSize=12;spacing=0;whiteSpace=wrap;html=1;" vertex="1" parent="35">
                    <mxGeometry width="26" height="21" as="geometry">
                        <mxRectangle width="26" height="21" as="alternateBounds"/>
                    </mxGeometry>
                </mxCell>
                <mxCell id="37" value="customer_city" style="shape=partialRectangle;connectable=0;fillColor=none;top=0;left=0;bottom=0;right=0;align=left;spacingLeft=6;overflow=hidden;strokeColor=inherit;fontSize=12;spacing=0;whiteSpace=wrap;html=1;" vertex="1" parent="35">
                    <mxGeometry x="26" width="154" height="21" as="geometry">
                        <mxRectangle width="154" height="21" as="alternateBounds"/>
                    </mxGeometry>
                </mxCell>
                <mxCell id="38" value="TEXT" style="shape=partialRectangle;connectable=0;fillColor=none;top=0;left=0;bottom=0;right=0;align=left;spacingLeft=6;overflow=hidden;strokeColor=inherit;fontSize=12;spacing=0;whiteSpace=wrap;html=1;" vertex="1" parent="35">
                    <mxGeometry x="180" width="50" height="21" as="geometry">
                        <mxRectangle width="50" height="21" as="alternateBounds"/>
                    </mxGeometry>
                </mxCell>
                <mxCell id="31" style="shape=tableRow;horizontal=0;startSize=0;swimlaneHead=0;swimlaneBody=0;top=0;left=0;bottom=0;right=0;collapsible=0;dropTarget=0;fillColor=none;points=[[0,0.5],[1,0.5]];portConstraint=eastwest;strokeColor=inherit;fontSize=16;" vertex="1" parent="10">
                    <mxGeometry y="102" width="230" height="21" as="geometry"/>
                </mxCell>
                <mxCell id="32" value="" style="shape=partialRectangle;connectable=0;fillColor=none;top=0;left=0;bottom=0;right=0;overflow=hidden;strokeColor=inherit;fontSize=12;spacing=0;whiteSpace=wrap;html=1;" vertex="1" parent="31">
                    <mxGeometry width="26" height="21" as="geometry">
                        <mxRectangle width="26" height="21" as="alternateBounds"/>
                    </mxGeometry>
                </mxCell>
                <mxCell id="33" value="customer_state" style="shape=partialRectangle;connectable=0;fillColor=none;top=0;left=0;bottom=0;right=0;align=left;spacingLeft=6;overflow=hidden;strokeColor=inherit;fontSize=12;spacing=0;whiteSpace=wrap;html=1;" vertex="1" parent="31">
                    <mxGeometry x="26" width="154" height="21" as="geometry">
                        <mxRectangle width="154" height="21" as="alternateBounds"/>
                    </mxGeometry>
                </mxCell>
                <mxCell id="34" value="TEXT" style="shape=partialRectangle;connectable=0;fillColor=none;top=0;left=0;bottom=0;right=0;align=left;spacingLeft=6;overflow=hidden;strokeColor=inherit;fontSize=12;spacing=0;whiteSpace=wrap;html=1;" vertex="1" parent="31">
                    <mxGeometry x="180" width="50" height="21" as="geometry">
                        <mxRectangle width="50" height="21" as="alternateBounds"/>
                    </mxGeometry>
                </mxCell>
                <mxCell id="39" value="tb_orders" style="shape=table;startSize=20;container=1;collapsible=0;childLayout=tableLayout;fixedRows=1;rowLines=0;fontStyle=0;strokeColor=default;fontSize=12;labelBackgroundColor=none;fillColor=#E6E6E6;swimlaneLine=1;swimlaneFillColor=default;" vertex="1" parent="1">
                    <mxGeometry x="340" y="259" width="250" height="163" as="geometry"/>
                </mxCell>
                <mxCell id="40" value="" style="shape=tableRow;horizontal=0;startSize=0;swimlaneHead=0;swimlaneBody=0;top=0;left=0;bottom=0;right=0;collapsible=0;dropTarget=0;fillColor=none;points=[[0,0.5],[1,0.5]];portConstraint=eastwest;strokeColor=inherit;fontSize=16;" vertex="1" parent="39">
                    <mxGeometry y="20" width="250" height="21" as="geometry"/>
                </mxCell>
                <mxCell id="41" value="" style="shape=partialRectangle;connectable=0;fillColor=none;top=0;left=0;bottom=0;right=0;overflow=hidden;pointerEvents=1;strokeColor=inherit;fontSize=12;spacing=0;whiteSpace=wrap;html=1;" vertex="1" parent="40">
                    <mxGeometry width="26" height="21" as="geometry">
                        <mxRectangle width="26" height="21" as="alternateBounds"/>
                    </mxGeometry>
                </mxCell>
                <mxCell id="42" value="order_id" style="shape=partialRectangle;connectable=0;fillColor=none;top=0;left=0;bottom=0;right=0;align=left;spacingLeft=6;overflow=hidden;strokeColor=inherit;fontSize=12;spacing=0;whiteSpace=wrap;html=1;" vertex="1" parent="40">
                    <mxGeometry x="26" width="184" height="21" as="geometry">
                        <mxRectangle width="184" height="21" as="alternateBounds"/>
                    </mxGeometry>
                </mxCell>
                <mxCell id="43" value="TEXT" style="shape=partialRectangle;connectable=0;fillColor=none;top=0;left=0;bottom=0;right=0;align=left;spacingLeft=6;overflow=hidden;strokeColor=inherit;fontSize=12;spacing=0;whiteSpace=wrap;html=1;" vertex="1" parent="40">
                    <mxGeometry x="210" width="40" height="21" as="geometry">
                        <mxRectangle width="40" height="21" as="alternateBounds"/>
                    </mxGeometry>
                </mxCell>
                <mxCell id="44" value="" style="shape=tableRow;horizontal=0;startSize=0;swimlaneHead=0;swimlaneBody=0;top=0;left=0;bottom=0;right=0;collapsible=0;dropTarget=0;fillColor=none;points=[[0,0.5],[1,0.5]];portConstraint=eastwest;strokeColor=inherit;fontSize=16;" vertex="1" parent="39">
                    <mxGeometry y="41" width="250" height="20" as="geometry"/>
                </mxCell>
                <mxCell id="45" value="" style="shape=partialRectangle;connectable=0;fillColor=none;top=0;left=0;bottom=0;right=0;overflow=hidden;strokeColor=inherit;fontSize=12;spacing=0;whiteSpace=wrap;html=1;" vertex="1" parent="44">
                    <mxGeometry width="26" height="20" as="geometry">
                        <mxRectangle width="26" height="20" as="alternateBounds"/>
                    </mxGeometry>
                </mxCell>
                <mxCell id="46" value="customer_id" style="shape=partialRectangle;connectable=0;fillColor=none;top=0;left=0;bottom=0;right=0;align=left;spacingLeft=6;overflow=hidden;strokeColor=inherit;fontSize=12;spacing=0;whiteSpace=wrap;html=1;" vertex="1" parent="44">
                    <mxGeometry x="26" width="184" height="20" as="geometry">
                        <mxRectangle width="184" height="20" as="alternateBounds"/>
                    </mxGeometry>
                </mxCell>
                <mxCell id="47" value="TEXT" style="shape=partialRectangle;connectable=0;fillColor=none;top=0;left=0;bottom=0;right=0;align=left;spacingLeft=6;overflow=hidden;strokeColor=inherit;fontSize=12;spacing=0;whiteSpace=wrap;html=1;" vertex="1" parent="44">
                    <mxGeometry x="210" width="40" height="20" as="geometry">
                        <mxRectangle width="40" height="20" as="alternateBounds"/>
                    </mxGeometry>
                </mxCell>
                <mxCell id="48" value="" style="shape=tableRow;horizontal=0;startSize=0;swimlaneHead=0;swimlaneBody=0;top=0;left=0;bottom=0;right=0;collapsible=0;dropTarget=0;fillColor=none;points=[[0,0.5],[1,0.5]];portConstraint=eastwest;strokeColor=inherit;fontSize=16;" vertex="1" parent="39">
                    <mxGeometry y="61" width="250" height="20" as="geometry"/>
                </mxCell>
                <mxCell id="49" value="" style="shape=partialRectangle;connectable=0;fillColor=none;top=0;left=0;bottom=0;right=0;overflow=hidden;strokeColor=inherit;fontSize=12;spacing=0;whiteSpace=wrap;html=1;" vertex="1" parent="48">
                    <mxGeometry width="26" height="20" as="geometry">
                        <mxRectangle width="26" height="20" as="alternateBounds"/>
                    </mxGeometry>
                </mxCell>
                <mxCell id="50" value="order_status" style="shape=partialRectangle;connectable=0;fillColor=none;top=0;left=0;bottom=0;right=0;align=left;spacingLeft=6;overflow=hidden;strokeColor=inherit;fontSize=12;spacing=0;whiteSpace=wrap;html=1;" vertex="1" parent="48">
                    <mxGeometry x="26" width="184" height="20" as="geometry">
                        <mxRectangle width="184" height="20" as="alternateBounds"/>
                    </mxGeometry>
                </mxCell>
                <mxCell id="51" value="TEXT" style="shape=partialRectangle;connectable=0;fillColor=none;top=0;left=0;bottom=0;right=0;align=left;spacingLeft=6;overflow=hidden;strokeColor=inherit;fontSize=12;spacing=0;whiteSpace=wrap;html=1;" vertex="1" parent="48">
                    <mxGeometry x="210" width="40" height="20" as="geometry">
                        <mxRectangle width="40" height="20" as="alternateBounds"/>
                    </mxGeometry>
                </mxCell>
                <mxCell id="52" style="shape=tableRow;horizontal=0;startSize=0;swimlaneHead=0;swimlaneBody=0;top=0;left=0;bottom=0;right=0;collapsible=0;dropTarget=0;fillColor=none;points=[[0,0.5],[1,0.5]];portConstraint=eastwest;strokeColor=inherit;fontSize=16;" vertex="1" parent="39">
                    <mxGeometry y="81" width="250" height="21" as="geometry"/>
                </mxCell>
                <mxCell id="53" value="" style="shape=partialRectangle;connectable=0;fillColor=none;top=0;left=0;bottom=0;right=0;overflow=hidden;strokeColor=inherit;fontSize=12;spacing=0;whiteSpace=wrap;html=1;" vertex="1" parent="52">
                    <mxGeometry width="26" height="21" as="geometry">
                        <mxRectangle width="26" height="21" as="alternateBounds"/>
                    </mxGeometry>
                </mxCell>
                <mxCell id="54" value="order_purchase_timestamp" style="shape=partialRectangle;connectable=0;fillColor=none;top=0;left=0;bottom=0;right=0;align=left;spacingLeft=6;overflow=hidden;strokeColor=inherit;fontSize=12;spacing=0;whiteSpace=wrap;html=1;" vertex="1" parent="52">
                    <mxGeometry x="26" width="184" height="21" as="geometry">
                        <mxRectangle width="184" height="21" as="alternateBounds"/>
                    </mxGeometry>
                </mxCell>
                <mxCell id="55" value="TEXT" style="shape=partialRectangle;connectable=0;fillColor=none;top=0;left=0;bottom=0;right=0;align=left;spacingLeft=6;overflow=hidden;strokeColor=inherit;fontSize=12;spacing=0;whiteSpace=wrap;html=1;" vertex="1" parent="52">
                    <mxGeometry x="210" width="40" height="21" as="geometry">
                        <mxRectangle width="40" height="21" as="alternateBounds"/>
                    </mxGeometry>
                </mxCell>
                <mxCell id="56" style="shape=tableRow;horizontal=0;startSize=0;swimlaneHead=0;swimlaneBody=0;top=0;left=0;bottom=0;right=0;collapsible=0;dropTarget=0;fillColor=none;points=[[0,0.5],[1,0.5]];portConstraint=eastwest;strokeColor=inherit;fontSize=16;" vertex="1" parent="39">
                    <mxGeometry y="102" width="250" height="20" as="geometry"/>
                </mxCell>
                <mxCell id="57" value="" style="shape=partialRectangle;connectable=0;fillColor=none;top=0;left=0;bottom=0;right=0;overflow=hidden;strokeColor=inherit;fontSize=12;spacing=0;whiteSpace=wrap;html=1;" vertex="1" parent="56">
                    <mxGeometry width="26" height="20" as="geometry">
                        <mxRectangle width="26" height="20" as="alternateBounds"/>
                    </mxGeometry>
                </mxCell>
                <mxCell id="58" value="order_delivered_carrier_date" style="shape=partialRectangle;connectable=0;fillColor=none;top=0;left=0;bottom=0;right=0;align=left;spacingLeft=6;overflow=hidden;strokeColor=inherit;fontSize=12;spacing=0;whiteSpace=wrap;html=1;" vertex="1" parent="56">
                    <mxGeometry x="26" width="184" height="20" as="geometry">
                        <mxRectangle width="184" height="20" as="alternateBounds"/>
                    </mxGeometry>
                </mxCell>
                <mxCell id="59" value="TEXT" style="shape=partialRectangle;connectable=0;fillColor=none;top=0;left=0;bottom=0;right=0;align=left;spacingLeft=6;overflow=hidden;strokeColor=inherit;fontSize=12;spacing=0;whiteSpace=wrap;html=1;" vertex="1" parent="56">
                    <mxGeometry x="210" width="40" height="20" as="geometry">
                        <mxRectangle width="40" height="20" as="alternateBounds"/>
                    </mxGeometry>
                </mxCell>
                <mxCell id="60" style="shape=tableRow;horizontal=0;startSize=0;swimlaneHead=0;swimlaneBody=0;top=0;left=0;bottom=0;right=0;collapsible=0;dropTarget=0;fillColor=none;points=[[0,0.5],[1,0.5]];portConstraint=eastwest;strokeColor=inherit;fontSize=16;" vertex="1" parent="39">
                    <mxGeometry y="122" width="250" height="21" as="geometry"/>
                </mxCell>
                <mxCell id="61" value="" style="shape=partialRectangle;connectable=0;fillColor=none;top=0;left=0;bottom=0;right=0;overflow=hidden;strokeColor=inherit;fontSize=12;spacing=0;whiteSpace=wrap;html=1;" vertex="1" parent="60">
                    <mxGeometry width="26" height="21" as="geometry">
                        <mxRectangle width="26" height="21" as="alternateBounds"/>
                    </mxGeometry>
                </mxCell>
                <mxCell id="62" value="order_delivered_customer_date" style="shape=partialRectangle;connectable=0;fillColor=none;top=0;left=0;bottom=0;right=0;align=left;spacingLeft=6;overflow=hidden;strokeColor=inherit;fontSize=12;spacing=0;whiteSpace=wrap;html=1;" vertex="1" parent="60">
                    <mxGeometry x="26" width="184" height="21" as="geometry">
                        <mxRectangle width="184" height="21" as="alternateBounds"/>
                    </mxGeometry>
                </mxCell>
                <mxCell id="63" value="TEXT" style="shape=partialRectangle;connectable=0;fillColor=none;top=0;left=0;bottom=0;right=0;align=left;spacingLeft=6;overflow=hidden;strokeColor=inherit;fontSize=12;spacing=0;whiteSpace=wrap;html=1;" vertex="1" parent="60">
                    <mxGeometry x="210" width="40" height="21" as="geometry">
                        <mxRectangle width="40" height="21" as="alternateBounds"/>
                    </mxGeometry>
                </mxCell>
                <mxCell id="64" style="shape=tableRow;horizontal=0;startSize=0;swimlaneHead=0;swimlaneBody=0;top=0;left=0;bottom=0;right=0;collapsible=0;dropTarget=0;fillColor=none;points=[[0,0.5],[1,0.5]];portConstraint=eastwest;strokeColor=inherit;fontSize=16;" vertex="1" parent="39">
                    <mxGeometry y="143" width="250" height="20" as="geometry"/>
                </mxCell>
                <mxCell id="65" value="" style="shape=partialRectangle;connectable=0;fillColor=none;top=0;left=0;bottom=0;right=0;overflow=hidden;strokeColor=inherit;fontSize=12;spacing=0;whiteSpace=wrap;html=1;" vertex="1" parent="64">
                    <mxGeometry width="26" height="20" as="geometry">
                        <mxRectangle width="26" height="20" as="alternateBounds"/>
                    </mxGeometry>
                </mxCell>
                <mxCell id="66" value="order_estimated_delivery_date" style="shape=partialRectangle;connectable=0;fillColor=none;top=0;left=0;bottom=0;right=0;align=left;spacingLeft=6;overflow=hidden;strokeColor=inherit;fontSize=12;spacing=0;whiteSpace=wrap;html=1;" vertex="1" parent="64">
                    <mxGeometry x="26" width="184" height="20" as="geometry">
                        <mxRectangle width="184" height="20" as="alternateBounds"/>
                    </mxGeometry>
                </mxCell>
                <mxCell id="67" value="TEXT" style="shape=partialRectangle;connectable=0;fillColor=none;top=0;left=0;bottom=0;right=0;align=left;spacingLeft=6;overflow=hidden;strokeColor=inherit;fontSize=12;spacing=0;whiteSpace=wrap;html=1;" vertex="1" parent="64">
                    <mxGeometry x="210" width="40" height="20" as="geometry">
                        <mxRectangle width="40" height="20" as="alternateBounds"/>
                    </mxGeometry>
                </mxCell>
                <mxCell id="69" value="tb_geolocation" style="shape=table;startSize=20;container=1;collapsible=0;childLayout=tableLayout;fixedRows=1;rowLines=0;fontStyle=0;strokeColor=default;fontSize=12;labelBackgroundColor=none;fillColor=#E6E6E6;swimlaneLine=1;swimlaneFillColor=default;" vertex="1" parent="1">
                    <mxGeometry x="850" y="449" width="240" height="124" as="geometry"/>
                </mxCell>
                <mxCell id="70" value="" style="shape=tableRow;horizontal=0;startSize=0;swimlaneHead=0;swimlaneBody=0;top=0;left=0;bottom=0;right=0;collapsible=0;dropTarget=0;fillColor=none;points=[[0,0.5],[1,0.5]];portConstraint=eastwest;strokeColor=inherit;fontSize=16;" vertex="1" parent="69">
                    <mxGeometry y="20" width="240" height="20" as="geometry"/>
                </mxCell>
                <mxCell id="71" value="" style="shape=partialRectangle;connectable=0;fillColor=none;top=0;left=0;bottom=0;right=0;overflow=hidden;pointerEvents=1;strokeColor=inherit;fontSize=12;spacing=0;whiteSpace=wrap;html=1;" vertex="1" parent="70">
                    <mxGeometry width="26" height="20" as="geometry">
                        <mxRectangle width="26" height="20" as="alternateBounds"/>
                    </mxGeometry>
                </mxCell>
                <mxCell id="72" value="&lt;span style=&quot;color: rgb(0, 0, 0); font-family: Helvetica; font-size: 12px; font-style: normal; font-variant-ligatures: normal; font-variant-caps: normal; font-weight: 400; letter-spacing: normal; orphans: 2; text-align: left; text-indent: 0px; text-transform: none; widows: 2; word-spacing: 0px; -webkit-text-stroke-width: 0px; white-space: normal; background-color: rgb(251, 251, 251); text-decoration-thickness: initial; text-decoration-style: initial; text-decoration-color: initial; float: none; display: inline !important;&quot;&gt;geolocation_zip_code_prefix&lt;/span&gt;" style="shape=partialRectangle;connectable=0;fillColor=none;top=0;left=0;bottom=0;right=0;align=left;spacingLeft=6;overflow=hidden;strokeColor=inherit;fontSize=12;spacing=0;whiteSpace=wrap;html=1;" vertex="1" parent="70">
                    <mxGeometry x="26" width="164" height="20" as="geometry">
                        <mxRectangle width="164" height="20" as="alternateBounds"/>
                    </mxGeometry>
                </mxCell>
                <mxCell id="73" value="BIGINT" style="shape=partialRectangle;connectable=0;fillColor=none;top=0;left=0;bottom=0;right=0;align=left;spacingLeft=6;overflow=hidden;strokeColor=inherit;fontSize=12;spacing=0;whiteSpace=wrap;html=1;" vertex="1" parent="70">
                    <mxGeometry x="190" width="50" height="20" as="geometry">
                        <mxRectangle width="50" height="20" as="alternateBounds"/>
                    </mxGeometry>
                </mxCell>
                <mxCell id="74" value="" style="shape=tableRow;horizontal=0;startSize=0;swimlaneHead=0;swimlaneBody=0;top=0;left=0;bottom=0;right=0;collapsible=0;dropTarget=0;fillColor=none;points=[[0,0.5],[1,0.5]];portConstraint=eastwest;strokeColor=inherit;fontSize=16;" vertex="1" parent="69">
                    <mxGeometry y="40" width="240" height="21" as="geometry"/>
                </mxCell>
                <mxCell id="75" value="" style="shape=partialRectangle;connectable=0;fillColor=none;top=0;left=0;bottom=0;right=0;overflow=hidden;strokeColor=inherit;fontSize=12;spacing=0;whiteSpace=wrap;html=1;" vertex="1" parent="74">
                    <mxGeometry width="26" height="21" as="geometry">
                        <mxRectangle width="26" height="21" as="alternateBounds"/>
                    </mxGeometry>
                </mxCell>
                <mxCell id="76" value="geolocation_lat" style="shape=partialRectangle;connectable=0;fillColor=none;top=0;left=0;bottom=0;right=0;align=left;spacingLeft=6;overflow=hidden;strokeColor=inherit;fontSize=12;spacing=0;whiteSpace=wrap;html=1;" vertex="1" parent="74">
                    <mxGeometry x="26" width="164" height="21" as="geometry">
                        <mxRectangle width="164" height="21" as="alternateBounds"/>
                    </mxGeometry>
                </mxCell>
                <mxCell id="77" value="FLOAT" style="shape=partialRectangle;connectable=0;fillColor=none;top=0;left=0;bottom=0;right=0;align=left;spacingLeft=6;overflow=hidden;strokeColor=inherit;fontSize=12;spacing=0;whiteSpace=wrap;html=1;" vertex="1" parent="74">
                    <mxGeometry x="190" width="50" height="21" as="geometry">
                        <mxRectangle width="50" height="21" as="alternateBounds"/>
                    </mxGeometry>
                </mxCell>
                <mxCell id="78" value="" style="shape=tableRow;horizontal=0;startSize=0;swimlaneHead=0;swimlaneBody=0;top=0;left=0;bottom=0;right=0;collapsible=0;dropTarget=0;fillColor=none;points=[[0,0.5],[1,0.5]];portConstraint=eastwest;strokeColor=inherit;fontSize=16;" vertex="1" parent="69">
                    <mxGeometry y="61" width="240" height="21" as="geometry"/>
                </mxCell>
                <mxCell id="79" value="" style="shape=partialRectangle;connectable=0;fillColor=none;top=0;left=0;bottom=0;right=0;overflow=hidden;strokeColor=inherit;fontSize=12;spacing=0;whiteSpace=wrap;html=1;" vertex="1" parent="78">
                    <mxGeometry width="26" height="21" as="geometry">
                        <mxRectangle width="26" height="21" as="alternateBounds"/>
                    </mxGeometry>
                </mxCell>
                <mxCell id="80" value="geolocation_lng" style="shape=partialRectangle;connectable=0;fillColor=none;top=0;left=0;bottom=0;right=0;align=left;spacingLeft=6;overflow=hidden;strokeColor=inherit;fontSize=12;spacing=0;whiteSpace=wrap;html=1;" vertex="1" parent="78">
                    <mxGeometry x="26" width="164" height="21" as="geometry">
                        <mxRectangle width="164" height="21" as="alternateBounds"/>
                    </mxGeometry>
                </mxCell>
                <mxCell id="81" value="FLOAT" style="shape=partialRectangle;connectable=0;fillColor=none;top=0;left=0;bottom=0;right=0;align=left;spacingLeft=6;overflow=hidden;strokeColor=inherit;fontSize=12;spacing=0;whiteSpace=wrap;html=1;" vertex="1" parent="78">
                    <mxGeometry x="190" width="50" height="21" as="geometry">
                        <mxRectangle width="50" height="21" as="alternateBounds"/>
                    </mxGeometry>
                </mxCell>
                <mxCell id="82" style="shape=tableRow;horizontal=0;startSize=0;swimlaneHead=0;swimlaneBody=0;top=0;left=0;bottom=0;right=0;collapsible=0;dropTarget=0;fillColor=none;points=[[0,0.5],[1,0.5]];portConstraint=eastwest;strokeColor=inherit;fontSize=16;" vertex="1" parent="69">
                    <mxGeometry y="82" width="240" height="21" as="geometry"/>
                </mxCell>
                <mxCell id="83" value="" style="shape=partialRectangle;connectable=0;fillColor=none;top=0;left=0;bottom=0;right=0;overflow=hidden;strokeColor=inherit;fontSize=12;spacing=0;whiteSpace=wrap;html=1;" vertex="1" parent="82">
                    <mxGeometry width="26" height="21" as="geometry">
                        <mxRectangle width="26" height="21" as="alternateBounds"/>
                    </mxGeometry>
                </mxCell>
                <mxCell id="84" value="geolocation_city" style="shape=partialRectangle;connectable=0;fillColor=none;top=0;left=0;bottom=0;right=0;align=left;spacingLeft=6;overflow=hidden;strokeColor=inherit;fontSize=12;spacing=0;whiteSpace=wrap;html=1;" vertex="1" parent="82">
                    <mxGeometry x="26" width="164" height="21" as="geometry">
                        <mxRectangle width="164" height="21" as="alternateBounds"/>
                    </mxGeometry>
                </mxCell>
                <mxCell id="85" value="TEXT" style="shape=partialRectangle;connectable=0;fillColor=none;top=0;left=0;bottom=0;right=0;align=left;spacingLeft=6;overflow=hidden;strokeColor=inherit;fontSize=12;spacing=0;whiteSpace=wrap;html=1;" vertex="1" parent="82">
                    <mxGeometry x="190" width="50" height="21" as="geometry">
                        <mxRectangle width="50" height="21" as="alternateBounds"/>
                    </mxGeometry>
                </mxCell>
                <mxCell id="86" style="shape=tableRow;horizontal=0;startSize=0;swimlaneHead=0;swimlaneBody=0;top=0;left=0;bottom=0;right=0;collapsible=0;dropTarget=0;fillColor=none;points=[[0,0.5],[1,0.5]];portConstraint=eastwest;strokeColor=inherit;fontSize=16;" vertex="1" parent="69">
                    <mxGeometry y="103" width="240" height="21" as="geometry"/>
                </mxCell>
                <mxCell id="87" value="" style="shape=partialRectangle;connectable=0;fillColor=none;top=0;left=0;bottom=0;right=0;overflow=hidden;strokeColor=inherit;fontSize=12;spacing=0;whiteSpace=wrap;html=1;" vertex="1" parent="86">
                    <mxGeometry width="26" height="21" as="geometry">
                        <mxRectangle width="26" height="21" as="alternateBounds"/>
                    </mxGeometry>
                </mxCell>
                <mxCell id="88" value="geolocation_state" style="shape=partialRectangle;connectable=0;fillColor=none;top=0;left=0;bottom=0;right=0;align=left;spacingLeft=6;overflow=hidden;strokeColor=inherit;fontSize=12;spacing=0;whiteSpace=wrap;html=1;" vertex="1" parent="86">
                    <mxGeometry x="26" width="164" height="21" as="geometry">
                        <mxRectangle width="164" height="21" as="alternateBounds"/>
                    </mxGeometry>
                </mxCell>
                <mxCell id="89" value="TEXT" style="shape=partialRectangle;connectable=0;fillColor=none;top=0;left=0;bottom=0;right=0;align=left;spacingLeft=6;overflow=hidden;strokeColor=inherit;fontSize=12;spacing=0;whiteSpace=wrap;html=1;" vertex="1" parent="86">
                    <mxGeometry x="190" width="50" height="21" as="geometry">
                        <mxRectangle width="50" height="21" as="alternateBounds"/>
                    </mxGeometry>
                </mxCell>
                <mxCell id="90" value="tb_order_items" style="shape=table;startSize=20;container=1;collapsible=0;childLayout=tableLayout;fixedRows=1;rowLines=0;fontStyle=0;strokeColor=default;fontSize=12;labelBackgroundColor=none;fillColor=#E6E6E6;swimlaneLine=1;swimlaneFillColor=default;" vertex="1" parent="1">
                    <mxGeometry x="660" y="259" width="190" height="167" as="geometry"/>
                </mxCell>
                <mxCell id="91" value="" style="shape=tableRow;horizontal=0;startSize=0;swimlaneHead=0;swimlaneBody=0;top=0;left=0;bottom=0;right=0;collapsible=0;dropTarget=0;fillColor=none;points=[[0,0.5],[1,0.5]];portConstraint=eastwest;strokeColor=inherit;fontSize=16;" vertex="1" parent="90">
                    <mxGeometry y="20" width="190" height="21" as="geometry"/>
                </mxCell>
                <mxCell id="92" value="" style="shape=partialRectangle;connectable=0;fillColor=none;top=0;left=0;bottom=0;right=0;overflow=hidden;pointerEvents=1;strokeColor=inherit;fontSize=12;spacing=0;whiteSpace=wrap;html=1;" vertex="1" parent="91">
                    <mxGeometry width="26" height="21" as="geometry">
                        <mxRectangle width="26" height="21" as="alternateBounds"/>
                    </mxGeometry>
                </mxCell>
                <mxCell id="93" value="&lt;span style=&quot;color: rgb(0, 0, 0); font-family: Helvetica; font-size: 12px; font-style: normal; font-variant-ligatures: normal; font-variant-caps: normal; font-weight: 400; letter-spacing: normal; orphans: 2; text-align: left; text-indent: 0px; text-transform: none; widows: 2; word-spacing: 0px; -webkit-text-stroke-width: 0px; white-space: normal; background-color: rgb(251, 251, 251); text-decoration-thickness: initial; text-decoration-style: initial; text-decoration-color: initial; float: none; display: inline !important;&quot;&gt;ord&lt;/span&gt;&lt;span style=&quot;background-color: light-dark(rgb(251, 251, 251), rgb(21, 21, 21));&quot;&gt;er_id&lt;/span&gt;" style="shape=partialRectangle;connectable=0;fillColor=none;top=0;left=0;bottom=0;right=0;align=left;spacingLeft=6;overflow=hidden;strokeColor=inherit;fontSize=12;spacing=0;whiteSpace=wrap;html=1;" vertex="1" parent="91">
                    <mxGeometry x="26" width="114" height="21" as="geometry">
                        <mxRectangle width="114" height="21" as="alternateBounds"/>
                    </mxGeometry>
                </mxCell>
                <mxCell id="94" value="TEXT" style="shape=partialRectangle;connectable=0;fillColor=none;top=0;left=0;bottom=0;right=0;align=left;spacingLeft=6;overflow=hidden;strokeColor=inherit;fontSize=12;spacing=0;whiteSpace=wrap;html=1;" vertex="1" parent="91">
                    <mxGeometry x="140" width="50" height="21" as="geometry">
                        <mxRectangle width="50" height="21" as="alternateBounds"/>
                    </mxGeometry>
                </mxCell>
                <mxCell id="95" value="" style="shape=tableRow;horizontal=0;startSize=0;swimlaneHead=0;swimlaneBody=0;top=0;left=0;bottom=0;right=0;collapsible=0;dropTarget=0;fillColor=none;points=[[0,0.5],[1,0.5]];portConstraint=eastwest;strokeColor=inherit;fontSize=16;" vertex="1" parent="90">
                    <mxGeometry y="41" width="190" height="21" as="geometry"/>
                </mxCell>
                <mxCell id="96" value="" style="shape=partialRectangle;connectable=0;fillColor=none;top=0;left=0;bottom=0;right=0;overflow=hidden;strokeColor=inherit;fontSize=12;spacing=0;whiteSpace=wrap;html=1;" vertex="1" parent="95">
                    <mxGeometry width="26" height="21" as="geometry">
                        <mxRectangle width="26" height="21" as="alternateBounds"/>
                    </mxGeometry>
                </mxCell>
                <mxCell id="97" value="order_item_id" style="shape=partialRectangle;connectable=0;fillColor=none;top=0;left=0;bottom=0;right=0;align=left;spacingLeft=6;overflow=hidden;strokeColor=inherit;fontSize=12;spacing=0;whiteSpace=wrap;html=1;" vertex="1" parent="95">
                    <mxGeometry x="26" width="114" height="21" as="geometry">
                        <mxRectangle width="114" height="21" as="alternateBounds"/>
                    </mxGeometry>
                </mxCell>
                <mxCell id="98" value="BIGINT" style="shape=partialRectangle;connectable=0;fillColor=none;top=0;left=0;bottom=0;right=0;align=left;spacingLeft=6;overflow=hidden;strokeColor=inherit;fontSize=12;spacing=0;whiteSpace=wrap;html=1;" vertex="1" parent="95">
                    <mxGeometry x="140" width="50" height="21" as="geometry">
                        <mxRectangle width="50" height="21" as="alternateBounds"/>
                    </mxGeometry>
                </mxCell>
                <mxCell id="99" value="" style="shape=tableRow;horizontal=0;startSize=0;swimlaneHead=0;swimlaneBody=0;top=0;left=0;bottom=0;right=0;collapsible=0;dropTarget=0;fillColor=none;points=[[0,0.5],[1,0.5]];portConstraint=eastwest;strokeColor=inherit;fontSize=16;" vertex="1" parent="90">
                    <mxGeometry y="62" width="190" height="21" as="geometry"/>
                </mxCell>
                <mxCell id="100" value="" style="shape=partialRectangle;connectable=0;fillColor=none;top=0;left=0;bottom=0;right=0;overflow=hidden;strokeColor=inherit;fontSize=12;spacing=0;whiteSpace=wrap;html=1;" vertex="1" parent="99">
                    <mxGeometry width="26" height="21" as="geometry">
                        <mxRectangle width="26" height="21" as="alternateBounds"/>
                    </mxGeometry>
                </mxCell>
                <mxCell id="101" value="product_id" style="shape=partialRectangle;connectable=0;fillColor=none;top=0;left=0;bottom=0;right=0;align=left;spacingLeft=6;overflow=hidden;strokeColor=inherit;fontSize=12;spacing=0;whiteSpace=wrap;html=1;" vertex="1" parent="99">
                    <mxGeometry x="26" width="114" height="21" as="geometry">
                        <mxRectangle width="114" height="21" as="alternateBounds"/>
                    </mxGeometry>
                </mxCell>
                <mxCell id="102" value="TEXT" style="shape=partialRectangle;connectable=0;fillColor=none;top=0;left=0;bottom=0;right=0;align=left;spacingLeft=6;overflow=hidden;strokeColor=inherit;fontSize=12;spacing=0;whiteSpace=wrap;html=1;" vertex="1" parent="99">
                    <mxGeometry x="140" width="50" height="21" as="geometry">
                        <mxRectangle width="50" height="21" as="alternateBounds"/>
                    </mxGeometry>
                </mxCell>
                <mxCell id="103" style="shape=tableRow;horizontal=0;startSize=0;swimlaneHead=0;swimlaneBody=0;top=0;left=0;bottom=0;right=0;collapsible=0;dropTarget=0;fillColor=none;points=[[0,0.5],[1,0.5]];portConstraint=eastwest;strokeColor=inherit;fontSize=16;" vertex="1" parent="90">
                    <mxGeometry y="83" width="190" height="21" as="geometry"/>
                </mxCell>
                <mxCell id="104" value="" style="shape=partialRectangle;connectable=0;fillColor=none;top=0;left=0;bottom=0;right=0;overflow=hidden;strokeColor=inherit;fontSize=12;spacing=0;whiteSpace=wrap;html=1;" vertex="1" parent="103">
                    <mxGeometry width="26" height="21" as="geometry">
                        <mxRectangle width="26" height="21" as="alternateBounds"/>
                    </mxGeometry>
                </mxCell>
                <mxCell id="105" value="seller_id" style="shape=partialRectangle;connectable=0;fillColor=none;top=0;left=0;bottom=0;right=0;align=left;spacingLeft=6;overflow=hidden;strokeColor=inherit;fontSize=12;spacing=0;whiteSpace=wrap;html=1;" vertex="1" parent="103">
                    <mxGeometry x="26" width="114" height="21" as="geometry">
                        <mxRectangle width="114" height="21" as="alternateBounds"/>
                    </mxGeometry>
                </mxCell>
                <mxCell id="106" value="TEXT" style="shape=partialRectangle;connectable=0;fillColor=none;top=0;left=0;bottom=0;right=0;align=left;spacingLeft=6;overflow=hidden;strokeColor=inherit;fontSize=12;spacing=0;whiteSpace=wrap;html=1;" vertex="1" parent="103">
                    <mxGeometry x="140" width="50" height="21" as="geometry">
                        <mxRectangle width="50" height="21" as="alternateBounds"/>
                    </mxGeometry>
                </mxCell>
                <mxCell id="107" style="shape=tableRow;horizontal=0;startSize=0;swimlaneHead=0;swimlaneBody=0;top=0;left=0;bottom=0;right=0;collapsible=0;dropTarget=0;fillColor=none;points=[[0,0.5],[1,0.5]];portConstraint=eastwest;strokeColor=inherit;fontSize=16;" vertex="1" parent="90">
                    <mxGeometry y="104" width="190" height="21" as="geometry"/>
                </mxCell>
                <mxCell id="108" value="" style="shape=partialRectangle;connectable=0;fillColor=none;top=0;left=0;bottom=0;right=0;overflow=hidden;strokeColor=inherit;fontSize=12;spacing=0;whiteSpace=wrap;html=1;" vertex="1" parent="107">
                    <mxGeometry width="26" height="21" as="geometry">
                        <mxRectangle width="26" height="21" as="alternateBounds"/>
                    </mxGeometry>
                </mxCell>
                <mxCell id="109" value="shipping_limit_date" style="shape=partialRectangle;connectable=0;fillColor=none;top=0;left=0;bottom=0;right=0;align=left;spacingLeft=6;overflow=hidden;strokeColor=inherit;fontSize=12;spacing=0;whiteSpace=wrap;html=1;" vertex="1" parent="107">
                    <mxGeometry x="26" width="114" height="21" as="geometry">
                        <mxRectangle width="114" height="21" as="alternateBounds"/>
                    </mxGeometry>
                </mxCell>
                <mxCell id="110" value="TEXT" style="shape=partialRectangle;connectable=0;fillColor=none;top=0;left=0;bottom=0;right=0;align=left;spacingLeft=6;overflow=hidden;strokeColor=inherit;fontSize=12;spacing=0;whiteSpace=wrap;html=1;" vertex="1" parent="107">
                    <mxGeometry x="140" width="50" height="21" as="geometry">
                        <mxRectangle width="50" height="21" as="alternateBounds"/>
                    </mxGeometry>
                </mxCell>
                <mxCell id="111" style="shape=tableRow;horizontal=0;startSize=0;swimlaneHead=0;swimlaneBody=0;top=0;left=0;bottom=0;right=0;collapsible=0;dropTarget=0;fillColor=none;points=[[0,0.5],[1,0.5]];portConstraint=eastwest;strokeColor=inherit;fontSize=16;" vertex="1" parent="90">
                    <mxGeometry y="125" width="190" height="21" as="geometry"/>
                </mxCell>
                <mxCell id="112" style="shape=partialRectangle;connectable=0;fillColor=none;top=0;left=0;bottom=0;right=0;overflow=hidden;strokeColor=inherit;fontSize=12;spacing=0;whiteSpace=wrap;html=1;" vertex="1" parent="111">
                    <mxGeometry width="26" height="21" as="geometry">
                        <mxRectangle width="26" height="21" as="alternateBounds"/>
                    </mxGeometry>
                </mxCell>
                <mxCell id="113" value="price" style="shape=partialRectangle;connectable=0;fillColor=none;top=0;left=0;bottom=0;right=0;align=left;spacingLeft=6;overflow=hidden;strokeColor=inherit;fontSize=12;spacing=0;whiteSpace=wrap;html=1;" vertex="1" parent="111">
                    <mxGeometry x="26" width="114" height="21" as="geometry">
                        <mxRectangle width="114" height="21" as="alternateBounds"/>
                    </mxGeometry>
                </mxCell>
                <mxCell id="114" value="FLOAT" style="shape=partialRectangle;connectable=0;fillColor=none;top=0;left=0;bottom=0;right=0;align=left;spacingLeft=6;overflow=hidden;strokeColor=inherit;fontSize=12;spacing=0;whiteSpace=wrap;html=1;" vertex="1" parent="111">
                    <mxGeometry x="140" width="50" height="21" as="geometry">
                        <mxRectangle width="50" height="21" as="alternateBounds"/>
                    </mxGeometry>
                </mxCell>
                <mxCell id="115" style="shape=tableRow;horizontal=0;startSize=0;swimlaneHead=0;swimlaneBody=0;top=0;left=0;bottom=0;right=0;collapsible=0;dropTarget=0;fillColor=none;points=[[0,0.5],[1,0.5]];portConstraint=eastwest;strokeColor=inherit;fontSize=16;" vertex="1" parent="90">
                    <mxGeometry y="146" width="190" height="21" as="geometry"/>
                </mxCell>
                <mxCell id="116" style="shape=partialRectangle;connectable=0;fillColor=none;top=0;left=0;bottom=0;right=0;overflow=hidden;strokeColor=inherit;fontSize=12;spacing=0;whiteSpace=wrap;html=1;" vertex="1" parent="115">
                    <mxGeometry width="26" height="21" as="geometry">
                        <mxRectangle width="26" height="21" as="alternateBounds"/>
                    </mxGeometry>
                </mxCell>
                <mxCell id="117" value="freight_value" style="shape=partialRectangle;connectable=0;fillColor=none;top=0;left=0;bottom=0;right=0;align=left;spacingLeft=6;overflow=hidden;strokeColor=inherit;fontSize=12;spacing=0;whiteSpace=wrap;html=1;" vertex="1" parent="115">
                    <mxGeometry x="26" width="114" height="21" as="geometry">
                        <mxRectangle width="114" height="21" as="alternateBounds"/>
                    </mxGeometry>
                </mxCell>
                <mxCell id="118" value="FLOAT" style="shape=partialRectangle;connectable=0;fillColor=none;top=0;left=0;bottom=0;right=0;align=left;spacingLeft=6;overflow=hidden;strokeColor=inherit;fontSize=12;spacing=0;whiteSpace=wrap;html=1;" vertex="1" parent="115">
                    <mxGeometry x="140" width="50" height="21" as="geometry">
                        <mxRectangle width="50" height="21" as="alternateBounds"/>
                    </mxGeometry>
                </mxCell>
                <mxCell id="119" value="tb_order_payments" style="shape=table;startSize=20;container=1;collapsible=0;childLayout=tableLayout;fixedRows=1;rowLines=0;fontStyle=0;strokeColor=default;fontSize=12;labelBackgroundColor=none;fillColor=#E6E6E6;swimlaneLine=1;swimlaneFillColor=default;" vertex="1" parent="1">
                    <mxGeometry x="590" y="29" width="260" height="125" as="geometry"/>
                </mxCell>
                <mxCell id="120" value="" style="shape=tableRow;horizontal=0;startSize=0;swimlaneHead=0;swimlaneBody=0;top=0;left=0;bottom=0;right=0;collapsible=0;dropTarget=0;fillColor=none;points=[[0,0.5],[1,0.5]];portConstraint=eastwest;strokeColor=inherit;fontSize=16;" vertex="1" parent="119">
                    <mxGeometry y="20" width="260" height="21" as="geometry"/>
                </mxCell>
                <mxCell id="121" value="" style="shape=partialRectangle;connectable=0;fillColor=none;top=0;left=0;bottom=0;right=0;overflow=hidden;pointerEvents=1;strokeColor=inherit;fontSize=12;spacing=0;whiteSpace=wrap;html=1;" vertex="1" parent="120">
                    <mxGeometry width="26" height="21" as="geometry">
                        <mxRectangle width="26" height="21" as="alternateBounds"/>
                    </mxGeometry>
                </mxCell>
                <mxCell id="122" value="&lt;span style=&quot;color: rgb(0, 0, 0); font-family: Helvetica; font-size: 12px; font-style: normal; font-variant-ligatures: normal; font-variant-caps: normal; font-weight: 400; letter-spacing: normal; orphans: 2; text-align: left; text-indent: 0px; text-transform: none; widows: 2; word-spacing: 0px; -webkit-text-stroke-width: 0px; white-space: normal; background-color: rgb(251, 251, 251); text-decoration-thickness: initial; text-decoration-style: initial; text-decoration-color: initial; float: none; display: inline !important;&quot;&gt;ord&lt;/span&gt;&lt;span style=&quot;background-color: light-dark(rgb(251, 251, 251), rgb(21, 21, 21));&quot;&gt;er_id&lt;/span&gt;" style="shape=partialRectangle;connectable=0;fillColor=none;top=0;left=0;bottom=0;right=0;align=left;spacingLeft=6;overflow=hidden;strokeColor=inherit;fontSize=12;spacing=0;whiteSpace=wrap;html=1;" vertex="1" parent="120">
                    <mxGeometry x="26" width="184" height="21" as="geometry">
                        <mxRectangle width="184" height="21" as="alternateBounds"/>
                    </mxGeometry>
                </mxCell>
                <mxCell id="123" value="TEXT" style="shape=partialRectangle;connectable=0;fillColor=none;top=0;left=0;bottom=0;right=0;align=left;spacingLeft=6;overflow=hidden;strokeColor=inherit;fontSize=12;spacing=0;whiteSpace=wrap;html=1;" vertex="1" parent="120">
                    <mxGeometry x="210" width="50" height="21" as="geometry">
                        <mxRectangle width="50" height="21" as="alternateBounds"/>
                    </mxGeometry>
                </mxCell>
                <mxCell id="124" value="" style="shape=tableRow;horizontal=0;startSize=0;swimlaneHead=0;swimlaneBody=0;top=0;left=0;bottom=0;right=0;collapsible=0;dropTarget=0;fillColor=none;points=[[0,0.5],[1,0.5]];portConstraint=eastwest;strokeColor=inherit;fontSize=16;" vertex="1" parent="119">
                    <mxGeometry y="41" width="260" height="21" as="geometry"/>
                </mxCell>
                <mxCell id="125" value="" style="shape=partialRectangle;connectable=0;fillColor=none;top=0;left=0;bottom=0;right=0;overflow=hidden;strokeColor=inherit;fontSize=12;spacing=0;whiteSpace=wrap;html=1;" vertex="1" parent="124">
                    <mxGeometry width="26" height="21" as="geometry">
                        <mxRectangle width="26" height="21" as="alternateBounds"/>
                    </mxGeometry>
                </mxCell>
                <mxCell id="126" value="payment_sequential" style="shape=partialRectangle;connectable=0;fillColor=none;top=0;left=0;bottom=0;right=0;align=left;spacingLeft=6;overflow=hidden;strokeColor=inherit;fontSize=12;spacing=0;whiteSpace=wrap;html=1;" vertex="1" parent="124">
                    <mxGeometry x="26" width="184" height="21" as="geometry">
                        <mxRectangle width="184" height="21" as="alternateBounds"/>
                    </mxGeometry>
                </mxCell>
                <mxCell id="127" value="BIGINT" style="shape=partialRectangle;connectable=0;fillColor=none;top=0;left=0;bottom=0;right=0;align=left;spacingLeft=6;overflow=hidden;strokeColor=inherit;fontSize=12;spacing=0;whiteSpace=wrap;html=1;" vertex="1" parent="124">
                    <mxGeometry x="210" width="50" height="21" as="geometry">
                        <mxRectangle width="50" height="21" as="alternateBounds"/>
                    </mxGeometry>
                </mxCell>
                <mxCell id="128" value="" style="shape=tableRow;horizontal=0;startSize=0;swimlaneHead=0;swimlaneBody=0;top=0;left=0;bottom=0;right=0;collapsible=0;dropTarget=0;fillColor=none;points=[[0,0.5],[1,0.5]];portConstraint=eastwest;strokeColor=inherit;fontSize=16;" vertex="1" parent="119">
                    <mxGeometry y="62" width="260" height="21" as="geometry"/>
                </mxCell>
                <mxCell id="129" value="" style="shape=partialRectangle;connectable=0;fillColor=none;top=0;left=0;bottom=0;right=0;overflow=hidden;strokeColor=inherit;fontSize=12;spacing=0;whiteSpace=wrap;html=1;" vertex="1" parent="128">
                    <mxGeometry width="26" height="21" as="geometry">
                        <mxRectangle width="26" height="21" as="alternateBounds"/>
                    </mxGeometry>
                </mxCell>
                <mxCell id="130" value="payment_type" style="shape=partialRectangle;connectable=0;fillColor=none;top=0;left=0;bottom=0;right=0;align=left;spacingLeft=6;overflow=hidden;strokeColor=inherit;fontSize=12;spacing=0;whiteSpace=wrap;html=1;" vertex="1" parent="128">
                    <mxGeometry x="26" width="184" height="21" as="geometry">
                        <mxRectangle width="184" height="21" as="alternateBounds"/>
                    </mxGeometry>
                </mxCell>
                <mxCell id="131" value="TEXT" style="shape=partialRectangle;connectable=0;fillColor=none;top=0;left=0;bottom=0;right=0;align=left;spacingLeft=6;overflow=hidden;strokeColor=inherit;fontSize=12;spacing=0;whiteSpace=wrap;html=1;" vertex="1" parent="128">
                    <mxGeometry x="210" width="50" height="21" as="geometry">
                        <mxRectangle width="50" height="21" as="alternateBounds"/>
                    </mxGeometry>
                </mxCell>
                <mxCell id="132" style="shape=tableRow;horizontal=0;startSize=0;swimlaneHead=0;swimlaneBody=0;top=0;left=0;bottom=0;right=0;collapsible=0;dropTarget=0;fillColor=none;points=[[0,0.5],[1,0.5]];portConstraint=eastwest;strokeColor=inherit;fontSize=16;" vertex="1" parent="119">
                    <mxGeometry y="83" width="260" height="21" as="geometry"/>
                </mxCell>
                <mxCell id="133" value="" style="shape=partialRectangle;connectable=0;fillColor=none;top=0;left=0;bottom=0;right=0;overflow=hidden;strokeColor=inherit;fontSize=12;spacing=0;whiteSpace=wrap;html=1;" vertex="1" parent="132">
                    <mxGeometry width="26" height="21" as="geometry">
                        <mxRectangle width="26" height="21" as="alternateBounds"/>
                    </mxGeometry>
                </mxCell>
                <mxCell id="134" value="payment_installments" style="shape=partialRectangle;connectable=0;fillColor=none;top=0;left=0;bottom=0;right=0;align=left;spacingLeft=6;overflow=hidden;strokeColor=inherit;fontSize=12;spacing=0;whiteSpace=wrap;html=1;" vertex="1" parent="132">
                    <mxGeometry x="26" width="184" height="21" as="geometry">
                        <mxRectangle width="184" height="21" as="alternateBounds"/>
                    </mxGeometry>
                </mxCell>
                <mxCell id="135" value="BIGINT" style="shape=partialRectangle;connectable=0;fillColor=none;top=0;left=0;bottom=0;right=0;align=left;spacingLeft=6;overflow=hidden;strokeColor=inherit;fontSize=12;spacing=0;whiteSpace=wrap;html=1;" vertex="1" parent="132">
                    <mxGeometry x="210" width="50" height="21" as="geometry">
                        <mxRectangle width="50" height="21" as="alternateBounds"/>
                    </mxGeometry>
                </mxCell>
                <mxCell id="136" style="shape=tableRow;horizontal=0;startSize=0;swimlaneHead=0;swimlaneBody=0;top=0;left=0;bottom=0;right=0;collapsible=0;dropTarget=0;fillColor=none;points=[[0,0.5],[1,0.5]];portConstraint=eastwest;strokeColor=inherit;fontSize=16;" vertex="1" parent="119">
                    <mxGeometry y="104" width="260" height="21" as="geometry"/>
                </mxCell>
                <mxCell id="137" value="" style="shape=partialRectangle;connectable=0;fillColor=none;top=0;left=0;bottom=0;right=0;overflow=hidden;strokeColor=inherit;fontSize=12;spacing=0;whiteSpace=wrap;html=1;" vertex="1" parent="136">
                    <mxGeometry width="26" height="21" as="geometry">
                        <mxRectangle width="26" height="21" as="alternateBounds"/>
                    </mxGeometry>
                </mxCell>
                <mxCell id="138" value="payment_value" style="shape=partialRectangle;connectable=0;fillColor=none;top=0;left=0;bottom=0;right=0;align=left;spacingLeft=6;overflow=hidden;strokeColor=inherit;fontSize=12;spacing=0;whiteSpace=wrap;html=1;" vertex="1" parent="136">
                    <mxGeometry x="26" width="184" height="21" as="geometry">
                        <mxRectangle width="184" height="21" as="alternateBounds"/>
                    </mxGeometry>
                </mxCell>
                <mxCell id="139" value="FLOAT" style="shape=partialRectangle;connectable=0;fillColor=none;top=0;left=0;bottom=0;right=0;align=left;spacingLeft=6;overflow=hidden;strokeColor=inherit;fontSize=12;spacing=0;whiteSpace=wrap;html=1;" vertex="1" parent="136">
                    <mxGeometry x="210" width="50" height="21" as="geometry">
                        <mxRectangle width="50" height="21" as="alternateBounds"/>
                    </mxGeometry>
                </mxCell>
                <mxCell id="148" value="tb_order_reviews" style="shape=table;startSize=20;container=1;collapsible=0;childLayout=tableLayout;fixedRows=1;rowLines=0;fontStyle=0;strokeColor=default;fontSize=12;labelBackgroundColor=none;fillColor=#E6E6E6;swimlaneLine=1;gradientColor=none;swimlaneFillColor=default;" vertex="1" parent="1">
                    <mxGeometry x="10" y="259" width="240" height="167" as="geometry"/>
                </mxCell>
                <mxCell id="149" value="" style="shape=tableRow;horizontal=0;startSize=0;swimlaneHead=0;swimlaneBody=0;top=0;left=0;bottom=0;right=0;collapsible=0;dropTarget=0;fillColor=none;points=[[0,0.5],[1,0.5]];portConstraint=eastwest;strokeColor=inherit;fontSize=16;" vertex="1" parent="148">
                    <mxGeometry y="20" width="240" height="21" as="geometry"/>
                </mxCell>
                <mxCell id="150" value="" style="shape=partialRectangle;connectable=0;fillColor=none;top=0;left=0;bottom=0;right=0;overflow=hidden;pointerEvents=1;strokeColor=inherit;fontSize=12;spacing=0;whiteSpace=wrap;html=1;" vertex="1" parent="149">
                    <mxGeometry width="26" height="21" as="geometry">
                        <mxRectangle width="26" height="21" as="alternateBounds"/>
                    </mxGeometry>
                </mxCell>
                <mxCell id="151" value="review_id" style="shape=partialRectangle;connectable=0;fillColor=none;top=0;left=0;bottom=0;right=0;align=left;spacingLeft=6;overflow=hidden;strokeColor=inherit;fontSize=12;spacing=0;whiteSpace=wrap;html=1;" vertex="1" parent="149">
                    <mxGeometry x="26" width="164" height="21" as="geometry">
                        <mxRectangle width="164" height="21" as="alternateBounds"/>
                    </mxGeometry>
                </mxCell>
                <mxCell id="152" value="TEXT" style="shape=partialRectangle;connectable=0;fillColor=none;top=0;left=0;bottom=0;right=0;align=left;spacingLeft=6;overflow=hidden;strokeColor=inherit;fontSize=12;spacing=0;whiteSpace=wrap;html=1;" vertex="1" parent="149">
                    <mxGeometry x="190" width="50" height="21" as="geometry">
                        <mxRectangle width="50" height="21" as="alternateBounds"/>
                    </mxGeometry>
                </mxCell>
                <mxCell id="153" value="" style="shape=tableRow;horizontal=0;startSize=0;swimlaneHead=0;swimlaneBody=0;top=0;left=0;bottom=0;right=0;collapsible=0;dropTarget=0;fillColor=none;points=[[0,0.5],[1,0.5]];portConstraint=eastwest;strokeColor=inherit;fontSize=16;" vertex="1" parent="148">
                    <mxGeometry y="41" width="240" height="21" as="geometry"/>
                </mxCell>
                <mxCell id="154" value="" style="shape=partialRectangle;connectable=0;fillColor=none;top=0;left=0;bottom=0;right=0;overflow=hidden;strokeColor=inherit;fontSize=12;spacing=0;whiteSpace=wrap;html=1;" vertex="1" parent="153">
                    <mxGeometry width="26" height="21" as="geometry">
                        <mxRectangle width="26" height="21" as="alternateBounds"/>
                    </mxGeometry>
                </mxCell>
                <mxCell id="155" value="order_id" style="shape=partialRectangle;connectable=0;fillColor=none;top=0;left=0;bottom=0;right=0;align=left;spacingLeft=6;overflow=hidden;strokeColor=inherit;fontSize=12;spacing=0;whiteSpace=wrap;html=1;" vertex="1" parent="153">
                    <mxGeometry x="26" width="164" height="21" as="geometry">
                        <mxRectangle width="164" height="21" as="alternateBounds"/>
                    </mxGeometry>
                </mxCell>
                <mxCell id="156" value="TEXT" style="shape=partialRectangle;connectable=0;fillColor=none;top=0;left=0;bottom=0;right=0;align=left;spacingLeft=6;overflow=hidden;strokeColor=inherit;fontSize=12;spacing=0;whiteSpace=wrap;html=1;" vertex="1" parent="153">
                    <mxGeometry x="190" width="50" height="21" as="geometry">
                        <mxRectangle width="50" height="21" as="alternateBounds"/>
                    </mxGeometry>
                </mxCell>
                <mxCell id="157" value="" style="shape=tableRow;horizontal=0;startSize=0;swimlaneHead=0;swimlaneBody=0;top=0;left=0;bottom=0;right=0;collapsible=0;dropTarget=0;fillColor=none;points=[[0,0.5],[1,0.5]];portConstraint=eastwest;strokeColor=inherit;fontSize=16;" vertex="1" parent="148">
                    <mxGeometry y="62" width="240" height="21" as="geometry"/>
                </mxCell>
                <mxCell id="158" value="" style="shape=partialRectangle;connectable=0;fillColor=none;top=0;left=0;bottom=0;right=0;overflow=hidden;strokeColor=inherit;fontSize=12;spacing=0;whiteSpace=wrap;html=1;" vertex="1" parent="157">
                    <mxGeometry width="26" height="21" as="geometry">
                        <mxRectangle width="26" height="21" as="alternateBounds"/>
                    </mxGeometry>
                </mxCell>
                <mxCell id="159" value="review_score" style="shape=partialRectangle;connectable=0;fillColor=none;top=0;left=0;bottom=0;right=0;align=left;spacingLeft=6;overflow=hidden;strokeColor=inherit;fontSize=12;spacing=0;whiteSpace=wrap;html=1;" vertex="1" parent="157">
                    <mxGeometry x="26" width="164" height="21" as="geometry">
                        <mxRectangle width="164" height="21" as="alternateBounds"/>
                    </mxGeometry>
                </mxCell>
                <mxCell id="160" value="BIGINT" style="shape=partialRectangle;connectable=0;fillColor=none;top=0;left=0;bottom=0;right=0;align=left;spacingLeft=6;overflow=hidden;strokeColor=inherit;fontSize=12;spacing=0;whiteSpace=wrap;html=1;" vertex="1" parent="157">
                    <mxGeometry x="190" width="50" height="21" as="geometry">
                        <mxRectangle width="50" height="21" as="alternateBounds"/>
                    </mxGeometry>
                </mxCell>
                <mxCell id="161" style="shape=tableRow;horizontal=0;startSize=0;swimlaneHead=0;swimlaneBody=0;top=0;left=0;bottom=0;right=0;collapsible=0;dropTarget=0;fillColor=none;points=[[0,0.5],[1,0.5]];portConstraint=eastwest;strokeColor=inherit;fontSize=16;" vertex="1" parent="148">
                    <mxGeometry y="83" width="240" height="21" as="geometry"/>
                </mxCell>
                <mxCell id="162" value="" style="shape=partialRectangle;connectable=0;fillColor=none;top=0;left=0;bottom=0;right=0;overflow=hidden;strokeColor=inherit;fontSize=12;spacing=0;whiteSpace=wrap;html=1;" vertex="1" parent="161">
                    <mxGeometry width="26" height="21" as="geometry">
                        <mxRectangle width="26" height="21" as="alternateBounds"/>
                    </mxGeometry>
                </mxCell>
                <mxCell id="163" value="review_comment_title" style="shape=partialRectangle;connectable=0;fillColor=none;top=0;left=0;bottom=0;right=0;align=left;spacingLeft=6;overflow=hidden;strokeColor=inherit;fontSize=12;spacing=0;whiteSpace=wrap;html=1;" vertex="1" parent="161">
                    <mxGeometry x="26" width="164" height="21" as="geometry">
                        <mxRectangle width="164" height="21" as="alternateBounds"/>
                    </mxGeometry>
                </mxCell>
                <mxCell id="164" value="TEXT" style="shape=partialRectangle;connectable=0;fillColor=none;top=0;left=0;bottom=0;right=0;align=left;spacingLeft=6;overflow=hidden;strokeColor=inherit;fontSize=12;spacing=0;whiteSpace=wrap;html=1;" vertex="1" parent="161">
                    <mxGeometry x="190" width="50" height="21" as="geometry">
                        <mxRectangle width="50" height="21" as="alternateBounds"/>
                    </mxGeometry>
                </mxCell>
                <mxCell id="165" style="shape=tableRow;horizontal=0;startSize=0;swimlaneHead=0;swimlaneBody=0;top=0;left=0;bottom=0;right=0;collapsible=0;dropTarget=0;fillColor=none;points=[[0,0.5],[1,0.5]];portConstraint=eastwest;strokeColor=inherit;fontSize=16;" vertex="1" parent="148">
                    <mxGeometry y="104" width="240" height="21" as="geometry"/>
                </mxCell>
                <mxCell id="166" value="" style="shape=partialRectangle;connectable=0;fillColor=none;top=0;left=0;bottom=0;right=0;overflow=hidden;strokeColor=inherit;fontSize=12;spacing=0;whiteSpace=wrap;html=1;" vertex="1" parent="165">
                    <mxGeometry width="26" height="21" as="geometry">
                        <mxRectangle width="26" height="21" as="alternateBounds"/>
                    </mxGeometry>
                </mxCell>
                <mxCell id="167" value="review_comment_message" style="shape=partialRectangle;connectable=0;fillColor=none;top=0;left=0;bottom=0;right=0;align=left;spacingLeft=6;overflow=hidden;strokeColor=inherit;fontSize=12;spacing=0;whiteSpace=wrap;html=1;" vertex="1" parent="165">
                    <mxGeometry x="26" width="164" height="21" as="geometry">
                        <mxRectangle width="164" height="21" as="alternateBounds"/>
                    </mxGeometry>
                </mxCell>
                <mxCell id="168" value="TEXT" style="shape=partialRectangle;connectable=0;fillColor=none;top=0;left=0;bottom=0;right=0;align=left;spacingLeft=6;overflow=hidden;strokeColor=inherit;fontSize=12;spacing=0;whiteSpace=wrap;html=1;" vertex="1" parent="165">
                    <mxGeometry x="190" width="50" height="21" as="geometry">
                        <mxRectangle width="50" height="21" as="alternateBounds"/>
                    </mxGeometry>
                </mxCell>
                <mxCell id="169" style="shape=tableRow;horizontal=0;startSize=0;swimlaneHead=0;swimlaneBody=0;top=0;left=0;bottom=0;right=0;collapsible=0;dropTarget=0;fillColor=none;points=[[0,0.5],[1,0.5]];portConstraint=eastwest;strokeColor=inherit;fontSize=16;" vertex="1" parent="148">
                    <mxGeometry y="125" width="240" height="21" as="geometry"/>
                </mxCell>
                <mxCell id="170" style="shape=partialRectangle;connectable=0;fillColor=none;top=0;left=0;bottom=0;right=0;overflow=hidden;strokeColor=inherit;fontSize=12;spacing=0;whiteSpace=wrap;html=1;" vertex="1" parent="169">
                    <mxGeometry width="26" height="21" as="geometry">
                        <mxRectangle width="26" height="21" as="alternateBounds"/>
                    </mxGeometry>
                </mxCell>
                <mxCell id="171" value="review_creation_date" style="shape=partialRectangle;connectable=0;fillColor=none;top=0;left=0;bottom=0;right=0;align=left;spacingLeft=6;overflow=hidden;strokeColor=inherit;fontSize=12;spacing=0;whiteSpace=wrap;html=1;" vertex="1" parent="169">
                    <mxGeometry x="26" width="164" height="21" as="geometry">
                        <mxRectangle width="164" height="21" as="alternateBounds"/>
                    </mxGeometry>
                </mxCell>
                <mxCell id="172" value="TEXT" style="shape=partialRectangle;connectable=0;fillColor=none;top=0;left=0;bottom=0;right=0;align=left;spacingLeft=6;overflow=hidden;strokeColor=inherit;fontSize=12;spacing=0;whiteSpace=wrap;html=1;" vertex="1" parent="169">
                    <mxGeometry x="190" width="50" height="21" as="geometry">
                        <mxRectangle width="50" height="21" as="alternateBounds"/>
                    </mxGeometry>
                </mxCell>
                <mxCell id="173" style="shape=tableRow;horizontal=0;startSize=0;swimlaneHead=0;swimlaneBody=0;top=0;left=0;bottom=0;right=0;collapsible=0;dropTarget=0;fillColor=none;points=[[0,0.5],[1,0.5]];portConstraint=eastwest;strokeColor=inherit;fontSize=16;" vertex="1" parent="148">
                    <mxGeometry y="146" width="240" height="21" as="geometry"/>
                </mxCell>
                <mxCell id="174" style="shape=partialRectangle;connectable=0;fillColor=none;top=0;left=0;bottom=0;right=0;overflow=hidden;strokeColor=inherit;fontSize=12;spacing=0;whiteSpace=wrap;html=1;" vertex="1" parent="173">
                    <mxGeometry width="26" height="21" as="geometry">
                        <mxRectangle width="26" height="21" as="alternateBounds"/>
                    </mxGeometry>
                </mxCell>
                <mxCell id="175" value="review_answer_timestamp" style="shape=partialRectangle;connectable=0;fillColor=none;top=0;left=0;bottom=0;right=0;align=left;spacingLeft=6;overflow=hidden;strokeColor=inherit;fontSize=12;spacing=0;whiteSpace=wrap;html=1;" vertex="1" parent="173">
                    <mxGeometry x="26" width="164" height="21" as="geometry">
                        <mxRectangle width="164" height="21" as="alternateBounds"/>
                    </mxGeometry>
                </mxCell>
                <mxCell id="176" value="TEXT" style="shape=partialRectangle;connectable=0;fillColor=none;top=0;left=0;bottom=0;right=0;align=left;spacingLeft=6;overflow=hidden;strokeColor=inherit;fontSize=12;spacing=0;whiteSpace=wrap;html=1;" vertex="1" parent="173">
                    <mxGeometry x="190" width="50" height="21" as="geometry">
                        <mxRectangle width="50" height="21" as="alternateBounds"/>
                    </mxGeometry>
                </mxCell>
                <mxCell id="177" value="tb_sellers" style="shape=table;startSize=20;container=1;collapsible=0;childLayout=tableLayout;fixedRows=1;rowLines=0;fontStyle=0;strokeColor=default;fontSize=12;labelBackgroundColor=none;fillColor=#E6E6E6;swimlaneLine=1;swimlaneFillColor=default;" vertex="1" parent="1">
                    <mxGeometry x="940" y="279" width="205" height="104" as="geometry"/>
                </mxCell>
                <mxCell id="178" value="" style="shape=tableRow;horizontal=0;startSize=0;swimlaneHead=0;swimlaneBody=0;top=0;left=0;bottom=0;right=0;collapsible=0;dropTarget=0;fillColor=none;points=[[0,0.5],[1,0.5]];portConstraint=eastwest;strokeColor=inherit;fontSize=16;" vertex="1" parent="177">
                    <mxGeometry y="20" width="205" height="21" as="geometry"/>
                </mxCell>
                <mxCell id="179" value="" style="shape=partialRectangle;connectable=0;fillColor=none;top=0;left=0;bottom=0;right=0;overflow=hidden;pointerEvents=1;strokeColor=inherit;fontSize=12;spacing=0;whiteSpace=wrap;html=1;" vertex="1" parent="178">
                    <mxGeometry width="26" height="21" as="geometry">
                        <mxRectangle width="26" height="21" as="alternateBounds"/>
                    </mxGeometry>
                </mxCell>
                <mxCell id="180" value="&lt;span style=&quot;color: rgb(0, 0, 0); font-family: Helvetica; font-size: 12px; font-style: normal; font-variant-ligatures: normal; font-variant-caps: normal; font-weight: 400; letter-spacing: normal; orphans: 2; text-align: left; text-indent: 0px; text-transform: none; widows: 2; word-spacing: 0px; -webkit-text-stroke-width: 0px; white-space: normal; background-color: rgb(251, 251, 251); text-decoration-thickness: initial; text-decoration-style: initial; text-decoration-color: initial; float: none; display: inline !important;&quot;&gt;seller_id&lt;/span&gt;" style="shape=partialRectangle;connectable=0;fillColor=none;top=0;left=0;bottom=0;right=0;align=left;spacingLeft=6;overflow=hidden;strokeColor=inherit;fontSize=12;spacing=0;whiteSpace=wrap;html=1;" vertex="1" parent="178">
                    <mxGeometry x="26" width="129" height="21" as="geometry">
                        <mxRectangle width="129" height="21" as="alternateBounds"/>
                    </mxGeometry>
                </mxCell>
                <mxCell id="181" value="TEXT" style="shape=partialRectangle;connectable=0;fillColor=none;top=0;left=0;bottom=0;right=0;align=left;spacingLeft=6;overflow=hidden;strokeColor=inherit;fontSize=12;spacing=0;whiteSpace=wrap;html=1;" vertex="1" parent="178">
                    <mxGeometry x="155" width="50" height="21" as="geometry">
                        <mxRectangle width="50" height="21" as="alternateBounds"/>
                    </mxGeometry>
                </mxCell>
                <mxCell id="182" value="" style="shape=tableRow;horizontal=0;startSize=0;swimlaneHead=0;swimlaneBody=0;top=0;left=0;bottom=0;right=0;collapsible=0;dropTarget=0;fillColor=none;points=[[0,0.5],[1,0.5]];portConstraint=eastwest;strokeColor=inherit;fontSize=16;" vertex="1" parent="177">
                    <mxGeometry y="41" width="205" height="21" as="geometry"/>
                </mxCell>
                <mxCell id="183" value="" style="shape=partialRectangle;connectable=0;fillColor=none;top=0;left=0;bottom=0;right=0;overflow=hidden;strokeColor=inherit;fontSize=12;spacing=0;whiteSpace=wrap;html=1;" vertex="1" parent="182">
                    <mxGeometry width="26" height="21" as="geometry">
                        <mxRectangle width="26" height="21" as="alternateBounds"/>
                    </mxGeometry>
                </mxCell>
                <mxCell id="184" value="seller_zip_code_prefix" style="shape=partialRectangle;connectable=0;fillColor=none;top=0;left=0;bottom=0;right=0;align=left;spacingLeft=6;overflow=hidden;strokeColor=inherit;fontSize=12;spacing=0;whiteSpace=wrap;html=1;" vertex="1" parent="182">
                    <mxGeometry x="26" width="129" height="21" as="geometry">
                        <mxRectangle width="129" height="21" as="alternateBounds"/>
                    </mxGeometry>
                </mxCell>
                <mxCell id="185" value="BIGINT" style="shape=partialRectangle;connectable=0;fillColor=none;top=0;left=0;bottom=0;right=0;align=left;spacingLeft=6;overflow=hidden;strokeColor=inherit;fontSize=12;spacing=0;whiteSpace=wrap;html=1;" vertex="1" parent="182">
                    <mxGeometry x="155" width="50" height="21" as="geometry">
                        <mxRectangle width="50" height="21" as="alternateBounds"/>
                    </mxGeometry>
                </mxCell>
                <mxCell id="186" value="" style="shape=tableRow;horizontal=0;startSize=0;swimlaneHead=0;swimlaneBody=0;top=0;left=0;bottom=0;right=0;collapsible=0;dropTarget=0;fillColor=none;points=[[0,0.5],[1,0.5]];portConstraint=eastwest;strokeColor=inherit;fontSize=16;" vertex="1" parent="177">
                    <mxGeometry y="62" width="205" height="21" as="geometry"/>
                </mxCell>
                <mxCell id="187" value="" style="shape=partialRectangle;connectable=0;fillColor=none;top=0;left=0;bottom=0;right=0;overflow=hidden;strokeColor=inherit;fontSize=12;spacing=0;whiteSpace=wrap;html=1;" vertex="1" parent="186">
                    <mxGeometry width="26" height="21" as="geometry">
                        <mxRectangle width="26" height="21" as="alternateBounds"/>
                    </mxGeometry>
                </mxCell>
                <mxCell id="188" value="seller_city" style="shape=partialRectangle;connectable=0;fillColor=none;top=0;left=0;bottom=0;right=0;align=left;spacingLeft=6;overflow=hidden;strokeColor=inherit;fontSize=12;spacing=0;whiteSpace=wrap;html=1;" vertex="1" parent="186">
                    <mxGeometry x="26" width="129" height="21" as="geometry">
                        <mxRectangle width="129" height="21" as="alternateBounds"/>
                    </mxGeometry>
                </mxCell>
                <mxCell id="189" value="TEXT" style="shape=partialRectangle;connectable=0;fillColor=none;top=0;left=0;bottom=0;right=0;align=left;spacingLeft=6;overflow=hidden;strokeColor=inherit;fontSize=12;spacing=0;whiteSpace=wrap;html=1;" vertex="1" parent="186">
                    <mxGeometry x="155" width="50" height="21" as="geometry">
                        <mxRectangle width="50" height="21" as="alternateBounds"/>
                    </mxGeometry>
                </mxCell>
                <mxCell id="190" style="shape=tableRow;horizontal=0;startSize=0;swimlaneHead=0;swimlaneBody=0;top=0;left=0;bottom=0;right=0;collapsible=0;dropTarget=0;fillColor=none;points=[[0,0.5],[1,0.5]];portConstraint=eastwest;strokeColor=inherit;fontSize=16;" vertex="1" parent="177">
                    <mxGeometry y="83" width="205" height="21" as="geometry"/>
                </mxCell>
                <mxCell id="191" value="" style="shape=partialRectangle;connectable=0;fillColor=none;top=0;left=0;bottom=0;right=0;overflow=hidden;strokeColor=inherit;fontSize=12;spacing=0;whiteSpace=wrap;html=1;" vertex="1" parent="190">
                    <mxGeometry width="26" height="21" as="geometry">
                        <mxRectangle width="26" height="21" as="alternateBounds"/>
                    </mxGeometry>
                </mxCell>
                <mxCell id="192" value="seller_state" style="shape=partialRectangle;connectable=0;fillColor=none;top=0;left=0;bottom=0;right=0;align=left;spacingLeft=6;overflow=hidden;strokeColor=inherit;fontSize=12;spacing=0;whiteSpace=wrap;html=1;" vertex="1" parent="190">
                    <mxGeometry x="26" width="129" height="21" as="geometry">
                        <mxRectangle width="129" height="21" as="alternateBounds"/>
                    </mxGeometry>
                </mxCell>
                <mxCell id="193" value="TEXT" style="shape=partialRectangle;connectable=0;fillColor=none;top=0;left=0;bottom=0;right=0;align=left;spacingLeft=6;overflow=hidden;strokeColor=inherit;fontSize=12;spacing=0;whiteSpace=wrap;html=1;" vertex="1" parent="190">
                    <mxGeometry x="155" width="50" height="21" as="geometry">
                        <mxRectangle width="50" height="21" as="alternateBounds"/>
                    </mxGeometry>
                </mxCell>
                <mxCell id="198" value="tb_products" style="shape=table;startSize=20;container=1;collapsible=0;childLayout=tableLayout;fixedRows=1;rowLines=0;fontStyle=0;strokeColor=default;fontSize=12;labelBackgroundColor=none;fillColor=#E6E6E6;swimlaneLine=1;swimlaneFillColor=default;" vertex="1" parent="1">
                    <mxGeometry x="930" y="19" width="230" height="208" as="geometry"/>
                </mxCell>
                <mxCell id="199" value="" style="shape=tableRow;horizontal=0;startSize=0;swimlaneHead=0;swimlaneBody=0;top=0;left=0;bottom=0;right=0;collapsible=0;dropTarget=0;fillColor=none;points=[[0,0.5],[1,0.5]];portConstraint=eastwest;strokeColor=inherit;fontSize=16;" vertex="1" parent="198">
                    <mxGeometry y="20" width="230" height="21" as="geometry"/>
                </mxCell>
                <mxCell id="200" value="" style="shape=partialRectangle;connectable=0;fillColor=none;top=0;left=0;bottom=0;right=0;overflow=hidden;pointerEvents=1;strokeColor=inherit;fontSize=12;spacing=0;whiteSpace=wrap;html=1;" vertex="1" parent="199">
                    <mxGeometry width="26" height="21" as="geometry">
                        <mxRectangle width="26" height="21" as="alternateBounds"/>
                    </mxGeometry>
                </mxCell>
                <mxCell id="201" value="product_id" style="shape=partialRectangle;connectable=0;fillColor=none;top=0;left=0;bottom=0;right=0;align=left;spacingLeft=6;overflow=hidden;strokeColor=inherit;fontSize=12;spacing=0;whiteSpace=wrap;html=1;" vertex="1" parent="199">
                    <mxGeometry x="26" width="154" height="21" as="geometry">
                        <mxRectangle width="154" height="21" as="alternateBounds"/>
                    </mxGeometry>
                </mxCell>
                <mxCell id="202" value="TEXT" style="shape=partialRectangle;connectable=0;fillColor=none;top=0;left=0;bottom=0;right=0;align=left;spacingLeft=6;overflow=hidden;strokeColor=inherit;fontSize=12;spacing=0;whiteSpace=wrap;html=1;" vertex="1" parent="199">
                    <mxGeometry x="180" width="50" height="21" as="geometry">
                        <mxRectangle width="50" height="21" as="alternateBounds"/>
                    </mxGeometry>
                </mxCell>
                <mxCell id="203" value="" style="shape=tableRow;horizontal=0;startSize=0;swimlaneHead=0;swimlaneBody=0;top=0;left=0;bottom=0;right=0;collapsible=0;dropTarget=0;fillColor=none;points=[[0,0.5],[1,0.5]];portConstraint=eastwest;strokeColor=inherit;fontSize=16;" vertex="1" parent="198">
                    <mxGeometry y="41" width="230" height="21" as="geometry"/>
                </mxCell>
                <mxCell id="204" value="" style="shape=partialRectangle;connectable=0;fillColor=none;top=0;left=0;bottom=0;right=0;overflow=hidden;strokeColor=inherit;fontSize=12;spacing=0;whiteSpace=wrap;html=1;" vertex="1" parent="203">
                    <mxGeometry width="26" height="21" as="geometry">
                        <mxRectangle width="26" height="21" as="alternateBounds"/>
                    </mxGeometry>
                </mxCell>
                <mxCell id="205" value="product_category_name" style="shape=partialRectangle;connectable=0;fillColor=none;top=0;left=0;bottom=0;right=0;align=left;spacingLeft=6;overflow=hidden;strokeColor=inherit;fontSize=12;spacing=0;whiteSpace=wrap;html=1;" vertex="1" parent="203">
                    <mxGeometry x="26" width="154" height="21" as="geometry">
                        <mxRectangle width="154" height="21" as="alternateBounds"/>
                    </mxGeometry>
                </mxCell>
                <mxCell id="206" value="TEXT" style="shape=partialRectangle;connectable=0;fillColor=none;top=0;left=0;bottom=0;right=0;align=left;spacingLeft=6;overflow=hidden;strokeColor=inherit;fontSize=12;spacing=0;whiteSpace=wrap;html=1;" vertex="1" parent="203">
                    <mxGeometry x="180" width="50" height="21" as="geometry">
                        <mxRectangle width="50" height="21" as="alternateBounds"/>
                    </mxGeometry>
                </mxCell>
                <mxCell id="207" value="" style="shape=tableRow;horizontal=0;startSize=0;swimlaneHead=0;swimlaneBody=0;top=0;left=0;bottom=0;right=0;collapsible=0;dropTarget=0;fillColor=none;points=[[0,0.5],[1,0.5]];portConstraint=eastwest;strokeColor=inherit;fontSize=16;" vertex="1" parent="198">
                    <mxGeometry y="62" width="230" height="21" as="geometry"/>
                </mxCell>
                <mxCell id="208" value="" style="shape=partialRectangle;connectable=0;fillColor=none;top=0;left=0;bottom=0;right=0;overflow=hidden;strokeColor=inherit;fontSize=12;spacing=0;whiteSpace=wrap;html=1;" vertex="1" parent="207">
                    <mxGeometry width="26" height="21" as="geometry">
                        <mxRectangle width="26" height="21" as="alternateBounds"/>
                    </mxGeometry>
                </mxCell>
                <mxCell id="209" value="product_name_lenght" style="shape=partialRectangle;connectable=0;fillColor=none;top=0;left=0;bottom=0;right=0;align=left;spacingLeft=6;overflow=hidden;strokeColor=inherit;fontSize=12;spacing=0;whiteSpace=wrap;html=1;" vertex="1" parent="207">
                    <mxGeometry x="26" width="154" height="21" as="geometry">
                        <mxRectangle width="154" height="21" as="alternateBounds"/>
                    </mxGeometry>
                </mxCell>
                <mxCell id="210" value="FLOAT" style="shape=partialRectangle;connectable=0;fillColor=none;top=0;left=0;bottom=0;right=0;align=left;spacingLeft=6;overflow=hidden;strokeColor=inherit;fontSize=12;spacing=0;whiteSpace=wrap;html=1;" vertex="1" parent="207">
                    <mxGeometry x="180" width="50" height="21" as="geometry">
                        <mxRectangle width="50" height="21" as="alternateBounds"/>
                    </mxGeometry>
                </mxCell>
                <mxCell id="211" style="shape=tableRow;horizontal=0;startSize=0;swimlaneHead=0;swimlaneBody=0;top=0;left=0;bottom=0;right=0;collapsible=0;dropTarget=0;fillColor=none;points=[[0,0.5],[1,0.5]];portConstraint=eastwest;strokeColor=inherit;fontSize=16;" vertex="1" parent="198">
                    <mxGeometry y="83" width="230" height="20" as="geometry"/>
                </mxCell>
                <mxCell id="212" value="" style="shape=partialRectangle;connectable=0;fillColor=none;top=0;left=0;bottom=0;right=0;overflow=hidden;strokeColor=inherit;fontSize=12;spacing=0;whiteSpace=wrap;html=1;" vertex="1" parent="211">
                    <mxGeometry width="26" height="20" as="geometry">
                        <mxRectangle width="26" height="20" as="alternateBounds"/>
                    </mxGeometry>
                </mxCell>
                <mxCell id="213" value="product_description_lenght" style="shape=partialRectangle;connectable=0;fillColor=none;top=0;left=0;bottom=0;right=0;align=left;spacingLeft=6;overflow=hidden;strokeColor=inherit;fontSize=12;spacing=0;whiteSpace=wrap;html=1;" vertex="1" parent="211">
                    <mxGeometry x="26" width="154" height="20" as="geometry">
                        <mxRectangle width="154" height="20" as="alternateBounds"/>
                    </mxGeometry>
                </mxCell>
                <mxCell id="214" value="FLOAT" style="shape=partialRectangle;connectable=0;fillColor=none;top=0;left=0;bottom=0;right=0;align=left;spacingLeft=6;overflow=hidden;strokeColor=inherit;fontSize=12;spacing=0;whiteSpace=wrap;html=1;" vertex="1" parent="211">
                    <mxGeometry x="180" width="50" height="20" as="geometry">
                        <mxRectangle width="50" height="20" as="alternateBounds"/>
                    </mxGeometry>
                </mxCell>
                <mxCell id="215" style="shape=tableRow;horizontal=0;startSize=0;swimlaneHead=0;swimlaneBody=0;top=0;left=0;bottom=0;right=0;collapsible=0;dropTarget=0;fillColor=none;points=[[0,0.5],[1,0.5]];portConstraint=eastwest;strokeColor=inherit;fontSize=16;" vertex="1" parent="198">
                    <mxGeometry y="103" width="230" height="21" as="geometry"/>
                </mxCell>
                <mxCell id="216" value="" style="shape=partialRectangle;connectable=0;fillColor=none;top=0;left=0;bottom=0;right=0;overflow=hidden;strokeColor=inherit;fontSize=12;spacing=0;whiteSpace=wrap;html=1;" vertex="1" parent="215">
                    <mxGeometry width="26" height="21" as="geometry">
                        <mxRectangle width="26" height="21" as="alternateBounds"/>
                    </mxGeometry>
                </mxCell>
                <mxCell id="217" value="product_photos_qty" style="shape=partialRectangle;connectable=0;fillColor=none;top=0;left=0;bottom=0;right=0;align=left;spacingLeft=6;overflow=hidden;strokeColor=inherit;fontSize=12;spacing=0;whiteSpace=wrap;html=1;" vertex="1" parent="215">
                    <mxGeometry x="26" width="154" height="21" as="geometry">
                        <mxRectangle width="154" height="21" as="alternateBounds"/>
                    </mxGeometry>
                </mxCell>
                <mxCell id="218" value="FLOAT" style="shape=partialRectangle;connectable=0;fillColor=none;top=0;left=0;bottom=0;right=0;align=left;spacingLeft=6;overflow=hidden;strokeColor=inherit;fontSize=12;spacing=0;whiteSpace=wrap;html=1;" vertex="1" parent="215">
                    <mxGeometry x="180" width="50" height="21" as="geometry">
                        <mxRectangle width="50" height="21" as="alternateBounds"/>
                    </mxGeometry>
                </mxCell>
                <mxCell id="219" style="shape=tableRow;horizontal=0;startSize=0;swimlaneHead=0;swimlaneBody=0;top=0;left=0;bottom=0;right=0;collapsible=0;dropTarget=0;fillColor=none;points=[[0,0.5],[1,0.5]];portConstraint=eastwest;strokeColor=inherit;fontSize=16;" vertex="1" parent="198">
                    <mxGeometry y="124" width="230" height="21" as="geometry"/>
                </mxCell>
                <mxCell id="220" style="shape=partialRectangle;connectable=0;fillColor=none;top=0;left=0;bottom=0;right=0;overflow=hidden;strokeColor=inherit;fontSize=12;spacing=0;whiteSpace=wrap;html=1;" vertex="1" parent="219">
                    <mxGeometry width="26" height="21" as="geometry">
                        <mxRectangle width="26" height="21" as="alternateBounds"/>
                    </mxGeometry>
                </mxCell>
                <mxCell id="221" value="product_weight_g" style="shape=partialRectangle;connectable=0;fillColor=none;top=0;left=0;bottom=0;right=0;align=left;spacingLeft=6;overflow=hidden;strokeColor=inherit;fontSize=12;spacing=0;whiteSpace=wrap;html=1;" vertex="1" parent="219">
                    <mxGeometry x="26" width="154" height="21" as="geometry">
                        <mxRectangle width="154" height="21" as="alternateBounds"/>
                    </mxGeometry>
                </mxCell>
                <mxCell id="222" value="FLOAT" style="shape=partialRectangle;connectable=0;fillColor=none;top=0;left=0;bottom=0;right=0;align=left;spacingLeft=6;overflow=hidden;strokeColor=inherit;fontSize=12;spacing=0;whiteSpace=wrap;html=1;" vertex="1" parent="219">
                    <mxGeometry x="180" width="50" height="21" as="geometry">
                        <mxRectangle width="50" height="21" as="alternateBounds"/>
                    </mxGeometry>
                </mxCell>
                <mxCell id="223" style="shape=tableRow;horizontal=0;startSize=0;swimlaneHead=0;swimlaneBody=0;top=0;left=0;bottom=0;right=0;collapsible=0;dropTarget=0;fillColor=none;points=[[0,0.5],[1,0.5]];portConstraint=eastwest;strokeColor=inherit;fontSize=16;" vertex="1" parent="198">
                    <mxGeometry y="145" width="230" height="21" as="geometry"/>
                </mxCell>
                <mxCell id="224" style="shape=partialRectangle;connectable=0;fillColor=none;top=0;left=0;bottom=0;right=0;overflow=hidden;strokeColor=inherit;fontSize=12;spacing=0;whiteSpace=wrap;html=1;" vertex="1" parent="223">
                    <mxGeometry width="26" height="21" as="geometry">
                        <mxRectangle width="26" height="21" as="alternateBounds"/>
                    </mxGeometry>
                </mxCell>
                <mxCell id="225" value="product_length_cm" style="shape=partialRectangle;connectable=0;fillColor=none;top=0;left=0;bottom=0;right=0;align=left;spacingLeft=6;overflow=hidden;strokeColor=inherit;fontSize=12;spacing=0;whiteSpace=wrap;html=1;" vertex="1" parent="223">
                    <mxGeometry x="26" width="154" height="21" as="geometry">
                        <mxRectangle width="154" height="21" as="alternateBounds"/>
                    </mxGeometry>
                </mxCell>
                <mxCell id="226" value="FLOAT" style="shape=partialRectangle;connectable=0;fillColor=none;top=0;left=0;bottom=0;right=0;align=left;spacingLeft=6;overflow=hidden;strokeColor=inherit;fontSize=12;spacing=0;whiteSpace=wrap;html=1;" vertex="1" parent="223">
                    <mxGeometry x="180" width="50" height="21" as="geometry">
                        <mxRectangle width="50" height="21" as="alternateBounds"/>
                    </mxGeometry>
                </mxCell>
                <mxCell id="231" style="shape=tableRow;horizontal=0;startSize=0;swimlaneHead=0;swimlaneBody=0;top=0;left=0;bottom=0;right=0;collapsible=0;dropTarget=0;fillColor=none;points=[[0,0.5],[1,0.5]];portConstraint=eastwest;strokeColor=inherit;fontSize=16;" vertex="1" parent="198">
                    <mxGeometry y="166" width="230" height="21" as="geometry"/>
                </mxCell>
                <mxCell id="232" style="shape=partialRectangle;connectable=0;fillColor=none;top=0;left=0;bottom=0;right=0;overflow=hidden;strokeColor=inherit;fontSize=12;spacing=0;whiteSpace=wrap;html=1;" vertex="1" parent="231">
                    <mxGeometry width="26" height="21" as="geometry">
                        <mxRectangle width="26" height="21" as="alternateBounds"/>
                    </mxGeometry>
                </mxCell>
                <mxCell id="233" value="product_height_cm" style="shape=partialRectangle;connectable=0;fillColor=none;top=0;left=0;bottom=0;right=0;align=left;spacingLeft=6;overflow=hidden;strokeColor=inherit;fontSize=12;spacing=0;whiteSpace=wrap;html=1;" vertex="1" parent="231">
                    <mxGeometry x="26" width="154" height="21" as="geometry">
                        <mxRectangle width="154" height="21" as="alternateBounds"/>
                    </mxGeometry>
                </mxCell>
                <mxCell id="234" value="FLOAT" style="shape=partialRectangle;connectable=0;fillColor=none;top=0;left=0;bottom=0;right=0;align=left;spacingLeft=6;overflow=hidden;strokeColor=inherit;fontSize=12;spacing=0;whiteSpace=wrap;html=1;" vertex="1" parent="231">
                    <mxGeometry x="180" width="50" height="21" as="geometry">
                        <mxRectangle width="50" height="21" as="alternateBounds"/>
                    </mxGeometry>
                </mxCell>
                <mxCell id="227" style="shape=tableRow;horizontal=0;startSize=0;swimlaneHead=0;swimlaneBody=0;top=0;left=0;bottom=0;right=0;collapsible=0;dropTarget=0;fillColor=none;points=[[0,0.5],[1,0.5]];portConstraint=eastwest;strokeColor=inherit;fontSize=16;" vertex="1" parent="198">
                    <mxGeometry y="187" width="230" height="21" as="geometry"/>
                </mxCell>
                <mxCell id="228" style="shape=partialRectangle;connectable=0;fillColor=none;top=0;left=0;bottom=0;right=0;overflow=hidden;strokeColor=inherit;fontSize=12;spacing=0;whiteSpace=wrap;html=1;" vertex="1" parent="227">
                    <mxGeometry width="26" height="21" as="geometry">
                        <mxRectangle width="26" height="21" as="alternateBounds"/>
                    </mxGeometry>
                </mxCell>
                <mxCell id="229" value="product_width_cm" style="shape=partialRectangle;connectable=0;fillColor=none;top=0;left=0;bottom=0;right=0;align=left;spacingLeft=6;overflow=hidden;strokeColor=inherit;fontSize=12;spacing=0;whiteSpace=wrap;html=1;" vertex="1" parent="227">
                    <mxGeometry x="26" width="154" height="21" as="geometry">
                        <mxRectangle width="154" height="21" as="alternateBounds"/>
                    </mxGeometry>
                </mxCell>
                <mxCell id="230" value="FLOAT" style="shape=partialRectangle;connectable=0;fillColor=none;top=0;left=0;bottom=0;right=0;align=left;spacingLeft=6;overflow=hidden;strokeColor=inherit;fontSize=12;spacing=0;whiteSpace=wrap;html=1;" vertex="1" parent="227">
                    <mxGeometry x="180" width="50" height="21" as="geometry">
                        <mxRectangle width="50" height="21" as="alternateBounds"/>
                    </mxGeometry>
                </mxCell>
                <mxCell id="238" style="edgeStyle=orthogonalEdgeStyle;html=1;exitX=1;exitY=0.5;exitDx=0;exitDy=0;entryX=0;entryY=0.5;entryDx=0;entryDy=0;endArrow=ERone;endFill=0;startArrow=ERzeroToMany;startFill=0;strokeWidth=1;endSize=10;startSize=10;targetPerimeterSpacing=0;sourcePerimeterSpacing=0;" edge="1" parent="1" source="103" target="178">
                    <mxGeometry relative="1" as="geometry">
                        <Array as="points">
                            <mxPoint x="910" y="353"/>
                            <mxPoint x="910" y="310"/>
                        </Array>
                    </mxGeometry>
                </mxCell>
                <mxCell id="244" style="edgeStyle=orthogonalEdgeStyle;html=1;exitX=1;exitY=0.5;exitDx=0;exitDy=0;entryX=0;entryY=0.5;entryDx=0;entryDy=0;endSize=10;startSize=10;endArrow=ERzeroToMany;endFill=0;startArrow=ERzeroToMany;startFill=0;" edge="1" parent="1" source="17" target="70">
                    <mxGeometry relative="1" as="geometry"/>
                </mxCell>
                <mxCell id="245" style="edgeStyle=none;html=1;exitX=1;exitY=0.5;exitDx=0;exitDy=0;entryX=0;entryY=0.5;entryDx=0;entryDy=0;endArrow=ERoneToMany;endFill=0;startArrow=ERone;startFill=0;startSize=10;endSize=10;" edge="1" parent="1" source="40" target="91">
                    <mxGeometry relative="1" as="geometry"/>
                </mxCell>
                <mxCell id="250" style="edgeStyle=orthogonalEdgeStyle;html=1;exitX=0;exitY=0.5;exitDx=0;exitDy=0;entryX=0;entryY=0.5;entryDx=0;entryDy=0;endSize=10;startSize=10;endArrow=ERone;endFill=0;startArrow=ERzeroToMany;startFill=0;" edge="1" parent="1" source="44" target="11">
                    <mxGeometry relative="1" as="geometry">
                        <Array as="points">
                            <mxPoint x="300" y="311"/>
                            <mxPoint x="300" y="489"/>
                        </Array>
                    </mxGeometry>
                </mxCell>
                <mxCell id="251" style="edgeStyle=orthogonalEdgeStyle;html=1;exitX=1;exitY=0.5;exitDx=0;exitDy=0;entryX=0;entryY=0.5;entryDx=0;entryDy=0;endArrow=ERone;endFill=0;startArrow=ERzeroToMany;startFill=0;endSize=10;startSize=10;" edge="1" parent="1" source="153" target="40">
                    <mxGeometry relative="1" as="geometry"/>
                </mxCell>
                <mxCell id="252" style="edgeStyle=orthogonalEdgeStyle;html=1;exitX=1;exitY=0.5;exitDx=0;exitDy=0;entryX=0;entryY=0.5;entryDx=0;entryDy=0;endArrow=ERone;endFill=0;startArrow=ERzeroToMany;startFill=0;endSize=10;startSize=10;" edge="1" parent="1" source="99" target="199">
                    <mxGeometry relative="1" as="geometry"/>
                </mxCell>
                <mxCell id="253" style="edgeStyle=orthogonalEdgeStyle;html=1;exitX=1;exitY=0.5;exitDx=0;exitDy=0;entryX=0;entryY=0.5;entryDx=0;entryDy=0;endArrow=ERone;endFill=0;startArrow=ERone;startFill=0;startSize=10;endSize=10;" edge="1" parent="1" source="40" target="120">
                    <mxGeometry relative="1" as="geometry">
                        <Array as="points">
                            <mxPoint x="640" y="290"/>
                            <mxPoint x="640" y="175"/>
                            <mxPoint x="560" y="175"/>
                            <mxPoint x="560" y="60"/>
                        </Array>
                    </mxGeometry>
                </mxCell>
                <mxCell id="254" style="edgeStyle=orthogonalEdgeStyle;html=1;exitX=1;exitY=0.5;exitDx=0;exitDy=0;entryX=1;entryY=0.5;entryDx=0;entryDy=0;endSize=10;startSize=10;endArrow=ERzeroToMany;endFill=0;startArrow=ERzeroToMany;startFill=0;" edge="1" parent="1" source="70" target="182">
                    <mxGeometry relative="1" as="geometry">
                        <Array as="points">
                            <mxPoint x="1180" y="479"/>
                            <mxPoint x="1180" y="331"/>
                        </Array>
                    </mxGeometry>
                </mxCell>
            </root>
        </mxGraphModel>
    </diagram>
</mxfile>